<svg width="36" height="37" viewBox="0 0 36 37" fill="none" xmlns="http://www.w3.org/2000/svg">
<path fill-rule="evenodd" clip-rule="evenodd" d="M20.849 22.6891L15.75 27.7881H12.375V31.1631H9V34.5381H3.375V28.9131L15.224 17.0641C14.8367 16.0248 14.625 14.8999 14.625 13.7256C14.625 8.44436 18.9063 4.16309 24.1875 4.16309C29.4687 4.16309 33.75 8.44436 33.75 13.7256C33.75 19.0068 29.4687 23.2881 24.1875 23.2881C23.0132 23.2881 21.8883 23.0764 20.849 22.6891ZM30.375 10.9131C30.375 9.04912 28.864 7.53809 27 7.53809C25.136 7.53809 23.625 9.04912 23.625 10.9131C23.625 12.777 25.136 14.2881 27 14.2881C28.864 14.2881 30.375 12.777 30.375 10.9131Z" fill="#F5BD02"/>
</svg>
