<svg width="37" height="41" viewBox="0 0 37 41" fill="none" xmlns="http://www.w3.org/2000/svg">
<g clip-path="url(#clip0_405_205)">
<mask id="mask0_405_205" style="mask-type:luminance" maskUnits="userSpaceOnUse" x="0" y="0" width="36" height="41">
<path d="M35.9919 0.84668H0.216797V40.6153H35.9919V0.84668Z" fill="white"/>
</mask>
<g mask="url(#mask0_405_205)">
<path d="M21.697 6.70823C21.6352 5.66374 20.938 5.00915 19.8776 4.99982H19.8573C19.1368 4.99982 18.5751 5.34243 18.0754 5.71285C17.9296 5.82067 17.7868 5.93232 17.6193 6.06327L17.5582 6.11085L17.5479 6.02765C17.5228 5.82516 17.503 5.66526 17.4732 5.50136C17.3223 4.67504 16.8436 4.23941 16.0098 4.16936C15.7171 4.13772 15.4211 4.17357 15.1445 4.27414C14.8679 4.37474 14.618 4.53738 14.414 4.74957C14.0927 5.08272 13.7998 5.44219 13.5385 5.82415C11.827 8.3495 10.2692 10.9757 8.87356 13.6883C8.7933 13.8323 8.70439 13.9712 8.60731 14.1043L8.5669 14.1624L8.5238 14.0792C8.43494 13.909 8.36003 13.7655 8.28367 13.6231C7.7049 12.4897 6.74188 11.5991 5.56678 11.1105C5.2276 10.9586 4.85375 10.9006 4.48448 10.9427C4.1152 10.9848 3.76405 11.1253 3.4677 11.3496C3.17212 11.5925 2.94725 11.9103 2.81666 12.2698C2.68608 12.6294 2.65453 13.0174 2.72538 13.3933C2.77696 13.6819 2.85345 13.9654 2.95402 14.2408C3.39183 15.5171 3.57507 16.8669 3.49334 18.2138C3.39183 20.0109 3.35851 21.7897 3.32824 23.7618C3.32403 24.2069 3.39903 24.6492 3.54972 25.068C4.18816 26.9144 5.39279 28.5126 6.9921 29.6349C7.46317 29.9627 7.61493 30.2644 7.5933 30.8298L7.58798 30.9682C7.55571 31.7901 7.52143 32.6399 7.75437 33.4111C8.78602 36.8377 10.9956 39.0877 14.3238 40.0988C15.112 40.3437 15.932 40.4709 16.7574 40.4762C17.9121 40.4757 19.0503 40.2019 20.0791 39.6777C21.3201 39.0624 22.4496 38.2442 23.4215 37.2575C24.8545 35.8272 26.2056 34.3175 27.4684 32.735C28.952 30.8475 30.1202 29.2143 31.0007 27.3771C31.4372 26.5039 31.7861 25.59 32.0427 24.6482C32.4338 23.1173 31.7765 21.8955 30.2389 21.2943C30.1945 21.2737 30.1521 21.2487 30.1123 21.2199L30.0862 21.2033C30.103 21.163 30.1197 21.1228 30.1362 21.0821C30.214 20.9031 30.2825 20.7202 30.3415 20.5342C30.379 20.4096 30.4191 20.2846 30.4594 20.1595C30.6004 19.7669 30.7015 19.3613 30.7609 18.9486C30.8014 18.6672 30.7829 18.3805 30.7066 18.1068C30.6303 17.8329 30.4982 17.578 30.3182 17.358C30.1182 17.1358 29.875 16.9568 29.6035 16.8321C29.332 16.7074 29.0379 16.6396 28.739 16.6329L28.2928 16.6068C28.3047 16.4833 28.3174 16.362 28.3301 16.2407C28.3684 15.8746 28.4049 15.5297 28.4132 15.1786C28.4356 14.1366 27.8091 13.409 26.7783 13.2795C26.5854 13.2628 26.3909 13.2689 26.1992 13.2978C26.0966 13.3095 25.9614 13.3228 25.8306 13.3255H25.7944C25.4999 13.3263 25.4282 13.3003 25.4131 13.288C24.967 12.6501 24.3009 12.3935 23.6992 12.1788C23.7195 12.1159 23.7396 12.0547 23.7596 11.9944C23.8341 11.7847 23.8952 11.5705 23.9427 11.353L23.9856 11.1367C24.0824 10.7295 24.1365 10.3133 24.147 9.89486C24.1355 8.81329 23.3794 8.05919 22.2655 8.01926C22.0973 8.0131 21.9294 8.0146 21.7615 8.01642H21.7029C21.7038 7.89729 21.7055 7.78166 21.707 7.66699C21.711 7.33422 21.7148 7.02039 21.697 6.70823ZM10.1108 14.1218C10.7446 12.9784 11.4003 11.7959 12.0781 10.6538C12.8379 9.37354 13.6631 8.10244 14.4611 6.87294L14.8593 6.25929C15.0309 5.98567 15.2512 5.74583 15.5092 5.55161C15.7256 5.39521 15.9344 5.34961 16.0813 5.42713C16.2226 5.50152 16.3001 5.68955 16.2942 5.94297C16.2873 6.3809 16.2082 6.8147 16.06 7.22688C15.7807 7.9667 15.4599 8.69018 15.0991 9.39385C14.5654 10.4473 14.0142 11.5044 13.4812 12.5267L13.4589 12.5695C13.1288 13.2028 12.7996 13.8366 12.4715 14.4707L12.4409 14.5296C12.315 14.7245 12.2437 14.9495 12.2343 15.1812C12.2515 15.3104 12.2973 15.434 12.3684 15.5432C12.4394 15.6524 12.534 15.7444 12.6451 15.8124C12.8326 15.9157 13.219 15.7756 13.3391 15.6032C13.6529 15.1541 13.9337 14.6827 14.1793 14.1929C15.2016 12.1449 16.5397 10.0203 18.3904 7.50677C18.6917 7.12253 19.0719 6.80728 19.5052 6.5821C19.7651 6.4415 19.9818 6.4092 20.0997 6.4939C20.2112 6.57411 20.248 6.77462 20.2009 7.04303C20.0801 7.84403 19.857 8.62621 19.5368 9.37038C18.3624 11.8918 16.94 14.2903 15.2909 16.5302L15.2264 16.6178C15.179 16.6818 15.1314 16.7462 15.0874 16.8123L15.057 16.8579C14.8932 17.1018 14.646 17.4705 14.9893 17.8411C15.1339 18.0116 15.3359 18.1236 15.5573 18.1561C15.7786 18.1883 16.0042 18.1389 16.1917 18.0168C16.4794 17.8413 16.7204 17.5988 16.8941 17.3099C18.0639 15.3052 19.3057 13.1679 20.4981 11.0162C20.8808 10.327 21.2823 9.88771 21.8023 9.59203C22.1486 9.39502 22.3441 9.37752 22.477 9.53245C22.6136 9.71572 22.6732 9.94501 22.6434 10.1716C22.5376 10.6912 22.381 11.1992 22.1762 11.6883C22.1036 11.8496 21.9725 11.9773 21.8091 12.0452C20.8737 12.3306 20.2873 13.0048 19.837 13.626C18.2563 15.8099 16.6342 18.0749 15.0178 20.358C14.721 20.7776 14.4495 21.2168 14.1603 21.6842C14.0706 21.8291 13.979 21.9772 13.8842 22.1288L13.6988 21.648C13.2355 20.47 12.4108 19.4691 11.3432 18.789C10.3882 18.1531 9.55044 18.0972 8.78285 18.6188C7.94671 19.1867 7.61425 20.0149 7.79496 21.08C7.85235 21.4186 7.91827 21.7609 7.98398 22.1025C8.07783 22.5899 8.17503 23.094 8.24643 23.5922C8.38568 24.5636 8.24805 25.5058 8.10179 26.5052C8.02609 27.0244 7.94788 27.5604 7.91061 28.107L7.89396 28.1021C7.82697 28.0895 7.76273 28.0649 7.70412 28.0299C6.38959 26.925 5.56146 25.7882 5.16977 24.554C4.92667 23.7872 4.91668 22.9399 4.92849 21.9915C4.94013 21.0547 5.01568 20.1021 5.08854 19.1807C5.11301 18.8711 5.13747 18.5616 5.15976 18.2519C5.30477 16.637 5.093 15.01 4.53944 13.486L4.50402 13.3922C4.34545 12.9782 4.19569 12.587 4.56474 12.3249C4.68073 12.2387 4.82128 12.192 4.96576 12.1918C5.20453 12.1918 5.48376 12.3167 5.79541 12.5633C7.15986 13.6427 7.62157 14.7651 7.24735 16.0954C7.15251 16.4322 7.10061 16.8497 7.54572 17.0896C7.7692 17.2101 8.2053 17.3261 8.61781 16.7489C8.78668 16.502 8.94006 16.2449 9.07706 15.979C9.12698 15.8871 9.17687 15.7959 9.22679 15.7045C9.52009 15.1832 9.81134 14.6604 10.1005 14.1361L10.1108 14.1218ZM9.28021 30.8878C9.31149 30.5562 9.34676 30.1805 9.39668 29.8093C9.53862 28.7631 9.69041 27.7001 9.83732 26.6723L9.99222 25.584C10.1867 24.151 10.0996 22.6938 9.73596 21.2941L9.7258 21.253C9.63047 20.9236 9.57374 20.5841 9.55662 20.2415C9.54648 20.1532 9.55657 20.0635 9.58618 19.9796C9.61579 19.8957 9.66412 19.8195 9.72747 19.7571C9.80786 19.7075 9.89834 19.6764 9.99227 19.6663C10.0862 19.6563 10.1811 19.6673 10.2703 19.6986C10.4256 19.7347 10.5763 19.7884 10.7196 19.8586C12.0146 20.4964 12.8457 22.4692 12.3978 23.8415C12.2277 24.3623 12.1081 24.8909 12.6614 25.1344C13.0854 25.3211 13.5398 25.1177 13.9077 24.5746C14.3558 23.9132 14.7996 23.2435 15.2289 22.5972C15.9277 21.5452 16.6489 20.4573 17.3862 19.406C18.6263 17.6379 19.9274 15.8909 21.2624 14.1078C21.487 13.8085 21.7754 13.5629 22.1065 13.3887C22.1797 13.3401 22.2647 13.312 22.3524 13.3072C22.4401 13.3024 22.5276 13.3211 22.6057 13.3614C22.6737 13.4193 22.7254 13.4941 22.7556 13.5783C22.7859 13.6625 22.7933 13.7531 22.7775 13.8411C22.7572 14.2776 22.6602 14.707 22.491 15.1099C22.1329 15.9087 21.7273 16.6855 21.2763 17.4359C20.5548 18.63 19.8027 19.8332 19.0747 20.9978C18.714 21.5747 18.3539 22.1521 17.9947 22.7299C17.9734 22.7642 17.9497 22.7993 17.9259 22.8348C17.8066 22.9771 17.7328 23.1519 17.714 23.3366C17.71 23.616 17.809 23.8871 17.992 24.0982C18.0429 24.151 18.105 24.1919 18.1737 24.2179C18.2424 24.2436 18.3161 24.254 18.3892 24.248C18.4877 24.2334 18.5817 24.1977 18.6654 24.1438C18.7489 24.0899 18.8202 24.0189 18.8742 23.9353C18.9398 23.844 19.0059 23.753 19.0723 23.6621C19.323 23.3185 19.5819 22.9632 19.8031 22.5897C21.051 20.4813 22.5945 18.3965 24.8087 15.8309C25.1941 15.4098 25.6689 15.0803 26.1985 14.8669C26.466 14.7541 26.6784 14.741 26.7821 14.8307C26.886 14.9204 26.9045 15.1337 26.832 15.4149C26.6427 16.2319 26.3562 17.0233 25.9784 17.772C24.7056 20.1104 23.0997 22.4145 20.9261 25.0226C20.8806 25.0771 20.8335 25.13 20.78 25.1903C20.7152 25.263 20.6504 25.3359 20.5896 25.4117L20.5683 25.4382C20.3581 25.6996 20.0703 26.0575 20.4134 26.5032C20.569 26.6829 20.7808 26.8049 21.0146 26.849C21.2482 26.8931 21.49 26.8568 21.7003 26.7458C22.0101 26.5612 22.2799 26.3163 22.4938 26.0263C23.6245 24.4503 24.7468 22.8526 25.8301 21.2773C26.1308 20.84 26.4013 20.3745 26.6655 19.9195C26.7433 19.7856 26.8214 19.652 26.8997 19.5184C27.2334 18.9521 27.7404 18.5082 28.3458 18.2523C28.6254 18.1274 28.8569 18.0804 29.078 18.2567C29.2828 18.4203 29.3209 18.6491 29.191 18.9363C29.0734 19.1965 28.9609 19.4609 28.8478 19.7267C28.5532 20.4825 28.1901 21.2099 27.7632 21.9C27.0349 22.9957 26.2261 24.064 25.4439 25.0971L25.4294 25.1162C25.0515 25.6154 24.661 26.1313 24.2842 26.6441C23.9139 27.1484 23.5747 27.6519 23.2761 28.1417C23.137 28.3696 23.021 28.689 23.1125 28.903C23.2443 29.2108 23.4739 29.4663 23.7659 29.6301C24.0029 29.75 24.4207 29.3855 24.5392 29.2262C25.0166 28.5848 25.4855 27.9264 25.9389 27.2899C26.2363 26.8721 26.5349 26.4553 26.8348 26.0394L27.1013 25.6705C27.5031 25.1114 27.9189 24.5332 28.3734 24.0089C28.6802 23.6696 29.0481 23.3909 29.4578 23.1874C29.5328 23.1366 29.619 23.1038 29.7087 23.0919C29.7985 23.0797 29.89 23.0885 29.9757 23.1177C30.1027 23.1827 30.1894 23.3471 30.2272 23.5931C30.2837 23.9598 30.253 24.3347 30.1377 24.6874C29.8639 25.4893 29.5401 26.2735 29.1687 27.0351C28.3096 28.7907 27.2405 30.4358 25.985 31.9339L25.932 31.9965C25.7533 32.1945 25.5936 32.409 25.4553 32.6371C24.5939 34.1636 23.3215 35.3881 22.0907 36.5723L22.0517 36.6098C21.1708 37.4391 20.1315 38.082 18.996 38.4998C17.773 38.9668 16.4357 38.9518 14.9082 38.4552C12.2492 37.5899 10.4581 35.7907 9.43247 32.9535L9.4185 32.915C9.36334 32.7816 9.32478 32.6417 9.30371 32.499C9.28041 32.2472 9.27042 31.9924 9.2601 31.6976L9.25861 31.6588C9.25412 31.5394 9.24946 31.4129 9.24297 31.2897C9.25544 31.168 9.26791 31.0356 9.28107 30.8959L9.19586 30.8881L9.28021 30.8878Z" fill="black"/>
<path d="M9.81645 0.90918C9.79716 0.90918 9.7785 0.90918 9.7389 0.90918L9.57251 0.917162C9.49197 0.924317 9.38564 0.933794 9.2803 0.950433C7.54188 1.2173 5.87757 1.84136 4.39229 2.78327C2.45888 3.98358 1.03451 5.8531 0.390455 8.03573C0.300737 8.34577 0.246745 8.66505 0.229544 8.98735C0.214236 9.21347 0.178818 9.74295 0.712115 9.81484C0.739695 9.81852 0.767486 9.8204 0.795313 9.82047C1.14691 9.82047 1.2534 9.49368 1.31697 9.29835C1.32645 9.26906 1.33591 9.24011 1.34573 9.21233C1.4013 9.05557 1.45206 8.89616 1.50298 8.73791C1.58801 8.47169 1.67603 8.19512 1.78751 7.93638C3.01734 5.08586 5.31513 3.32224 8.81126 2.54518C8.98231 2.50708 9.1595 2.47861 9.33106 2.45216C9.54736 2.41888 9.76988 2.38294 10.002 2.3237C10.334 2.23917 10.7885 2.12403 10.8163 1.58191C10.82 1.51324 10.8097 1.44454 10.7859 1.37999C10.7622 1.31544 10.7256 1.25642 10.6782 1.20653C10.5123 1.02682 10.2067 0.921493 9.81645 0.90918Z" fill="black"/>
<path d="M32.0245 35.074C30.966 36.007 29.7927 36.801 28.5335 37.4369C28.35 37.5405 28.1755 37.66 28.0128 37.7938C27.9357 37.8534 27.8566 37.9145 27.7724 37.9748L27.6279 38.0788L27.7549 38.2033C27.8688 38.3293 28.0072 38.4312 28.1613 38.5029C28.3155 38.5742 28.4825 38.6137 28.6527 38.619C28.9478 38.6028 29.2355 38.5202 29.4944 38.3774C30.7201 37.7971 31.9112 36.9775 33.2427 35.7984C34.598 34.5979 35.4863 33.0218 35.8828 31.1133C36.019 30.4592 35.9406 29.7488 35.8717 29.1209C35.8053 28.5187 35.5043 28.1882 34.9765 28.138L34.8994 28.1309L34.8495 28.1899C34.5128 28.5839 34.525 29.0136 34.5356 29.3942C34.5379 29.472 34.5402 29.5493 34.5392 29.6254C34.5108 31.7864 33.6891 33.5689 32.0245 35.074Z" fill="black"/>
<path d="M32.4002 28.9536C32.3422 28.9036 32.274 28.8671 32.2002 28.8466C32.1267 28.8258 32.0496 28.8217 31.9741 28.8342C31.356 28.9216 31.3489 29.4315 31.3441 29.7686C31.3441 29.816 31.3428 29.8635 31.341 29.9093C31.3296 30.6167 31.1527 31.3116 30.8241 31.938C30.4958 32.5647 30.025 33.1055 29.4498 33.5172C29.0738 33.7834 28.6816 34.0258 28.2754 34.243C28.1114 34.3353 27.9474 34.4276 27.7859 34.5227C27.7195 34.5597 27.6513 34.5929 27.5816 34.6226C27.4251 34.6798 27.2824 34.7696 27.1632 34.886C27.0258 35.0398 26.8605 35.3788 26.9429 35.6181C27.0231 35.8511 27.3658 36.0088 27.5823 36.0321C27.6089 36.0352 27.6358 36.0364 27.6624 36.0364C27.8769 36.0215 28.0863 35.967 28.2808 35.876L28.3074 35.8653C29.286 35.4878 30.1779 34.9164 30.9298 34.1857C31.4845 33.6625 31.9294 33.0337 32.2387 32.3368C32.5478 31.6396 32.7149 30.8879 32.7301 30.1256V30.0713C32.7301 30.0305 32.7301 29.9897 32.7301 29.9491C32.7179 29.4707 32.6041 29.1265 32.4002 28.9536Z" fill="black"/>
<path d="M4.77415 9.80961L4.84572 9.74303C4.87634 9.71492 4.90311 9.69311 4.92809 9.67331C4.98368 9.6366 5.02808 9.58524 5.05637 9.5249C5.83077 7.54564 7.26943 6.23377 9.33492 5.62593C9.64429 5.51468 9.93292 5.35258 10.189 5.14636C10.2682 5.08126 10.327 4.99476 10.3583 4.89713C10.3896 4.79952 10.3922 4.69495 10.3657 4.59592C10.3183 4.50554 10.2532 4.4256 10.1742 4.36091C10.0953 4.29621 10.0041 4.24809 9.90613 4.21936C9.71071 4.18273 9.50893 4.20167 9.32374 4.27395C7.75713 4.77696 6.59755 5.44653 5.6742 6.38119C5.07736 6.98538 4.64102 7.75145 4.30108 8.79192C4.20124 9.0966 4.13287 9.52957 4.68379 9.77018L4.77415 9.80961Z" fill="black"/>
</g>
</g>
<defs>
<clipPath id="clip0_405_205">
<rect width="36" height="40.0563" fill="white" transform="translate(0.214844 0.732422)"/>
</clipPath>
</defs>
</svg>
