<svg width="37" height="37" viewBox="0 0 37 37" fill="none" xmlns="http://www.w3.org/2000/svg">
<path d="M18.2146 4.06934C8.31465 4.06934 2.01465 10.0921 2.01465 17.4721C2.01465 24.8521 8.31465 30.8821 18.2146 30.8821C19.9246 30.8821 22.2646 30.6121 23.6146 30.1621L28.8347 33.1321C30.0047 33.8521 31.5346 32.9521 31.5346 31.6021V25.1221C31.6246 25.0321 31.6246 24.9421 31.7146 24.9421C33.5147 22.2421 34.4146 20.8921 34.4146 17.4721C34.4146 10.0921 28.1146 4.06934 18.2146 4.06934ZM30.3646 20.0893C29.825 21.1436 29.2239 22.1654 28.5646 23.1493C28.2046 23.7793 27.9347 24.4093 27.9347 25.1293V28.5493L25.4146 27.0121C24.9872 26.7499 24.5053 26.5893 24.006 26.5425C23.5068 26.4957 23.0034 26.564 22.5346 26.7421C21.7246 27.0121 19.8347 27.1921 18.3046 27.1921C9.84465 27.1921 5.70465 22.3321 5.70465 17.3821C5.61465 12.5221 9.75465 7.66214 18.2146 7.66214C26.6747 7.66214 30.8146 12.5221 30.8146 17.4721C30.8146 18.8221 30.6346 19.4521 30.3646 20.0821V20.0893ZM15.5146 17.5693C15.5146 18.1033 15.673 18.6254 15.9697 19.0694C16.2664 19.5134 16.688 19.8595 17.1814 20.0638C17.6748 20.2682 18.2176 20.3216 18.7414 20.2175C19.2651 20.1133 19.7462 19.8561 20.1238 19.4785C20.5014 19.1009 20.7586 18.6198 20.8628 18.0961C20.9669 17.5723 20.9135 17.0295 20.7091 16.5361C20.5048 16.0427 20.1587 15.621 19.7147 15.3244C19.2707 15.0277 18.7487 14.8693 18.2146 14.8693C17.4986 14.8693 16.8118 15.1538 16.3055 15.6601C15.7991 16.1665 15.5146 16.8533 15.5146 17.5693ZM8.31465 17.5693C8.31465 18.2854 8.59911 18.9722 9.10546 19.4785C9.61181 19.9849 10.2986 20.2693 11.0146 20.2693C11.7307 20.2693 12.4175 19.9849 12.9238 19.4785C13.4302 18.9722 13.7146 18.2854 13.7146 17.5693C13.7146 16.8533 13.4302 16.1665 12.9238 15.6601C12.4175 15.1538 11.7307 14.8693 11.0146 14.8693C10.2986 14.8693 9.61181 15.1538 9.10546 15.6601C8.59911 16.1665 8.31465 16.8533 8.31465 17.5693ZM22.7146 17.5693C22.7146 18.2854 22.9991 18.9722 23.5055 19.4785C24.0118 19.9849 24.6986 20.2693 25.4146 20.2693C26.1307 20.2693 26.8175 19.9849 27.3238 19.4785C27.8302 18.9722 28.1146 18.2854 28.1146 17.5693C28.1146 16.8533 27.8302 16.1665 27.3238 15.6601C26.8175 15.1538 26.1307 14.8693 25.4146 14.8693C24.6986 14.8693 24.0118 15.1538 23.5055 15.6601C22.9991 16.1665 22.7146 16.8533 22.7146 17.5693Z" fill="black"/>
</svg>
