<svg width="76" height="76" viewBox="0 0 76 76" fill="none" xmlns="http://www.w3.org/2000/svg">
<path fill-rule="evenodd" clip-rule="evenodd" d="M30.5946 56.8489C23.2705 57.9992 17.3634 62.9204 14.9992 69.8417C14.8068 70.4048 14.6494 70.9202 14.6494 70.9873C14.6494 71.0544 25.1593 71.1093 38.0048 71.1093C50.8503 71.1093 61.3602 71.0544 61.3602 70.9873C61.3602 70.7413 60.6477 68.7893 60.194 67.7922C59.9373 67.2278 59.3028 66.1287 58.784 65.3495C55.6072 60.5775 50.5623 57.4693 44.8843 56.7856C43.6695 56.6394 43.4742 56.6641 43.4739 56.9643C43.4739 57.0612 43.2781 57.5541 43.0389 58.0597C42.4957 59.2081 41.4945 60.2233 40.3989 60.7368C39.6377 61.0937 39.3937 61.1312 37.857 61.1287C36.2901 61.126 36.096 61.0938 35.3757 60.717C33.9111 59.9506 32.8895 58.7583 32.4653 57.3198C32.3642 56.9772 32.189 56.686 32.0759 56.6727C31.9628 56.6594 31.2962 56.7386 30.5946 56.8489Z" fill="#CBE4DE"/>
<path fill-rule="evenodd" clip-rule="evenodd" d="M34.3096 52.5299C34.3096 56.5561 34.4222 57.0873 35.4973 58.1298C35.9949 58.6121 36.4487 58.8934 36.9879 59.0536C37.9503 59.3394 38.059 59.3391 39.0498 59.0476C39.6486 58.8715 40.0291 58.6295 40.5465 58.0961C41.5928 57.017 41.7005 56.4972 41.7005 52.5299C41.7005 49.2296 41.7005 49.2296 40.8506 49.3416C40.383 49.4034 39.1026 49.4538 38.005 49.4538C36.9075 49.4538 35.6269 49.4034 35.1595 49.3416C34.3096 49.2296 34.3096 49.2296 34.3096 52.5299Z" fill="#CBE4DE"/>
<path fill-rule="evenodd" clip-rule="evenodd" d="M23.2396 48.5515C22.6511 48.8776 22.4952 49.3481 22.4894 50.8142C22.4835 52.3824 22.6269 52.7987 23.2981 53.1601C23.7175 53.386 23.8437 53.3948 24.2486 53.2272C24.9462 52.9382 25.145 52.4126 25.145 50.8581C25.145 49.3569 24.9533 48.803 24.3361 48.5218C23.852 48.3011 23.6829 48.3057 23.2396 48.5515Z" fill="#D36767"/>
<path fill-rule="evenodd" clip-rule="evenodd" d="M19.0105 46.847C18.3431 47.2605 16.7487 48.9898 16.6415 49.4166C16.4149 50.3196 17.4687 51.2211 18.3326 50.8634C18.8619 50.6441 20.775 48.6954 20.9243 48.2234C21.0762 47.7428 20.7494 47.0426 20.2535 46.7861C19.7145 46.5075 19.5456 46.5158 19.0105 46.847Z" fill="#D36767"/>
<path fill-rule="evenodd" clip-rule="evenodd" d="M14.9287 42.6542C14.3861 42.9491 14.1199 43.6409 14.3423 44.178C14.6324 44.8781 15.1892 45.0932 16.7123 45.0932C18.265 45.0932 18.7991 44.8948 19.0813 44.2132C19.3244 43.6264 19.0643 42.9497 18.4795 42.6472C17.9204 42.3581 15.4646 42.3628 14.9287 42.6542Z" fill="#D36767"/>
<path fill-rule="evenodd" clip-rule="evenodd" d="M55.5553 31.0142C55.5178 33.1886 55.4359 35.1219 55.3734 35.3107C55.2641 35.6403 55.282 35.6496 55.834 35.5491C59.1442 34.9467 60.4867 31.0267 58.2536 28.4835C57.768 27.9304 56.7655 27.3352 56.0159 27.155C55.6236 27.0607 55.6236 27.0607 55.5553 31.0142Z" fill="#CBE4DE"/>
<path fill-rule="evenodd" clip-rule="evenodd" d="M43.5477 18.1471C41.9739 20.3557 38.8626 22.9332 35.935 24.4539C32.5569 26.2087 29.7173 26.9092 25.4399 27.043C22.5574 27.1332 22.5574 27.1332 22.5774 30.6069C22.5985 34.2848 22.5904 34.2264 23.5416 37.5041C23.7118 38.0905 23.6931 38.1721 23.1422 39.2574C22.622 40.2824 22.5654 40.5032 22.574 41.4745C22.5815 42.3311 22.6649 42.7196 22.9787 43.3611C23.4519 44.3283 24.5953 45.4405 25.5557 45.8677C26.544 46.3073 28.2114 46.3048 29.1911 45.8622C29.5877 45.6831 30.0533 45.5368 30.2258 45.5369C30.3985 45.5372 31.1638 45.8065 31.9266 46.1357C34.2118 47.1215 35.4861 47.3727 38.1523 47.3625C40.6961 47.3528 41.699 47.1571 43.9881 46.2238C47.7326 44.6973 51.0322 41.3029 52.4557 37.5134C53.2999 35.2659 53.3991 34.584 53.4829 30.4507C53.5596 26.6728 53.5596 26.6728 52.9144 26.4816C51.8503 26.1663 49.3979 24.8386 48.5017 24.0928C46.8759 22.7397 45.3298 20.4123 44.6543 18.301C44.4787 17.7521 44.291 17.3065 44.237 17.3103C44.183 17.3141 43.8729 17.6908 43.5477 18.1471ZM27.1768 34.7028C27.034 34.8617 26.9181 35.2239 26.9181 35.5106C26.9181 36.1949 27.2457 36.4583 28.2485 36.5803C30.4151 36.8437 31.8993 38.3294 32.1751 40.5108C32.3036 41.527 32.5632 41.8411 33.2743 41.8411C34.1569 41.8411 34.3692 41.4806 34.2687 40.1524C34.0425 37.1625 31.5688 34.6948 28.596 34.4935C27.574 34.4243 27.4046 34.4493 27.1768 34.7028Z" fill="#CBE4DE"/>
<path fill-rule="evenodd" clip-rule="evenodd" d="M19.5072 27.291C18.5717 27.579 17.4388 28.6261 17.004 29.6048C15.8831 32.1274 17.4817 35.0548 20.2472 35.5442C20.7127 35.6265 20.7374 35.6109 20.6295 35.2999C20.566 35.1171 20.487 33.1883 20.4538 31.0134C20.4206 28.8385 20.3483 27.0638 20.2932 27.0696C20.2382 27.0752 19.8844 27.1748 19.5072 27.291Z" fill="#CBE4DE"/>
<path fill-rule="evenodd" clip-rule="evenodd" d="M31.7181 4.73982C26.1963 5.49296 21.873 9.3599 20.5316 14.7458C20.2352 15.9355 20.2068 16.4264 20.1999 20.4813C20.1923 24.9159 20.1923 24.9159 23.8139 24.8974C26.9172 24.8815 27.6576 24.8327 28.9875 24.556C33.3807 23.6419 36.8237 21.7999 39.9801 18.6747C41.5057 17.1641 42.6871 15.6274 43.6216 13.9376C44.3832 12.5605 44.7999 12.2651 45.5452 12.5738C46.0497 12.7828 46.0822 12.886 46.2073 14.6774C46.3289 16.4203 46.6015 17.416 47.4058 19.0552C47.9635 20.1918 48.3116 20.6673 49.3635 21.7291C50.4393 22.815 50.8665 23.1301 52.0473 23.7087C53.4137 24.3783 54.8529 24.842 55.5643 24.842C55.9151 24.842 55.9151 24.842 55.8541 19.2618C55.7856 13.0174 55.7652 12.8656 54.6983 10.686C53.6223 8.48807 51.9602 6.83249 49.7561 5.76332C47.5104 4.67404 47.6266 4.6869 39.7044 4.65069C35.802 4.63295 32.2081 4.67301 31.7181 4.73982Z" fill="#CBE4DE"/>
</svg>
