<svg width="50" height="50" viewBox="0 0 50 50" fill="none" xmlns="http://www.w3.org/2000/svg">
<g clip-path="url(#clip0_208_2136)">
<path d="M8.33341 12.5003H4.16675V41.667C4.16675 43.9691 6.03133 45.8337 8.33341 45.8337H37.5001V41.667H8.33341V12.5003ZM41.6667 4.16699H16.6667C14.3647 4.16699 12.5001 6.03158 12.5001 8.33366V33.3337C12.5001 35.6357 14.3647 37.5003 16.6667 37.5003H41.6667C43.9688 37.5003 45.8334 35.6357 45.8334 33.3337V8.33366C45.8334 6.03158 43.9688 4.16699 41.6667 4.16699ZM39.5834 22.917H31.2501V31.2503H27.0834V22.917H18.7501V18.7503H27.0834V10.417H31.2501V18.7503H39.5834V22.917Z" fill="#0E8388"/>
<path d="M39.5834 22.917H31.2501V31.2503H27.0834V22.917H18.7501V18.7503H27.0834V10.417H31.2501V18.7503H39.5834V22.917Z" fill="white"/>
</g>
<defs>
<clipPath id="clip0_208_2136">
<rect width="50" height="50" fill="white"/>
</clipPath>
</defs>
</svg>
