<svg width="31" height="30" viewBox="0 0 31 30" fill="none" xmlns="http://www.w3.org/2000/svg">
<path d="M22.583 10C22.583 8.01088 21.7928 6.10322 20.3863 4.6967C18.9798 3.29018 17.0721 2.5 15.083 2.5C13.0939 2.5 11.1862 3.29018 9.77971 4.6967C8.37318 6.10322 7.58301 8.01088 7.58301 10C7.58301 18.75 3.83301 21.25 3.83301 21.25H26.333C26.333 21.25 22.583 18.75 22.583 10Z" fill="white" stroke="#2E4F4F" stroke-width="2.5" stroke-linecap="round" stroke-linejoin="round"/>
<path d="M17.2454 26.25C17.0256 26.6288 16.7102 26.9433 16.3307 27.1619C15.9512 27.3805 15.5209 27.4956 15.0829 27.4956C14.6449 27.4956 14.2146 27.3805 13.8351 27.1619C13.4556 26.9433 13.1402 26.6288 12.9204 26.25" stroke="#2E4F4F" stroke-width="2.5" stroke-linecap="round" stroke-linejoin="round"/>
</svg>
