<svg width="35" height="34" viewBox="0 0 35 34" fill="none" xmlns="http://www.w3.org/2000/svg">
<path d="M20.9387 7.7282C22.3684 8.00714 23.6824 8.70638 24.7124 9.73642C25.7424 10.7665 26.4417 12.0804 26.7206 13.5102M20.9387 1.87305C23.9091 2.20304 26.679 3.53324 28.7937 5.64524C30.9084 7.75724 32.242 10.5255 32.5758 13.4955M31.112 25.1765V29.5679C31.1136 29.9756 31.0301 30.3791 30.8668 30.7526C30.7035 31.1261 30.464 31.4614 30.1636 31.737C29.8632 32.0126 29.5085 32.2225 29.1223 32.3531C28.7361 32.4837 28.3269 32.5322 27.9209 32.4955C23.4166 32.0061 19.0899 30.4669 15.2884 28.0017C11.7517 25.7543 8.75312 22.7557 6.50571 19.2189C4.03188 15.4002 2.49236 11.0525 2.01188 6.52789C1.9753 6.12311 2.02341 5.71514 2.15314 5.32996C2.28287 4.94479 2.49138 4.59085 2.76539 4.29067C3.0394 3.99049 3.37292 3.75066 3.7447 3.58644C4.11648 3.42222 4.51838 3.33722 4.92482 3.33683H9.31618C10.0266 3.32984 10.7153 3.5814 11.2539 4.04462C11.7925 4.50785 12.1443 5.15112 12.2438 5.85455C12.4291 7.25988 12.7728 8.63974 13.2684 9.96779C13.4654 10.4917 13.508 11.0611 13.3912 11.6085C13.2745 12.1559 13.0033 12.6584 12.6097 13.0564L10.7507 14.9154C12.8345 18.5801 15.8688 21.6143 19.5334 23.6981L21.3924 21.8391C21.7904 21.4456 22.2929 21.1743 22.8403 21.0576C23.3877 20.9408 23.9571 20.9835 24.481 21.1804C25.8091 21.676 27.1889 22.0197 28.5943 22.2051C29.3053 22.3054 29.9547 22.6635 30.4189 23.2114C30.8831 23.7593 31.1298 24.4587 31.112 25.1765Z" stroke="#2C3333" stroke-width="2.92758" stroke-linecap="round" stroke-linejoin="round"/>
</svg>
