<svg width="27" height="26" viewBox="0 0 27 26" fill="none" xmlns="http://www.w3.org/2000/svg">
<path d="M23.4117 3.41307C22.2079 2.28158 20.1286 2.28158 18.8154 3.41307L9.95128 11.5392C9.18524 12.2593 8.63807 13.185 8.4192 14.2136L7.98147 16.4766C7.87203 16.7852 7.98147 17.1967 8.30977 17.4024C8.52864 17.6081 8.74751 17.711 9.07581 17.711C9.18524 17.711 9.18524 17.711 9.29467 17.711L11.7022 17.2995C12.7966 17.0938 13.7815 16.5795 14.5475 15.8594L23.4117 7.63044C24.0683 7.11612 24.3966 6.29322 24.3966 5.47032C24.3966 4.64742 24.0683 3.92738 23.4117 3.41307ZM13.1249 14.3165C12.6871 14.728 12.0305 15.0365 11.3739 15.1394L10.4984 15.3451L10.7173 14.6251C10.8268 14.0079 11.1551 13.4936 11.7022 12.9793L18.4871 6.70467L20.0192 8.04189L13.1249 14.3165ZM21.8796 6.19036L21.4418 6.60181L19.9098 5.2646L20.3475 4.85315C20.5664 4.64742 20.8947 4.54456 21.1135 4.54456C21.4418 4.54456 21.6607 4.64742 21.8796 4.85315C22.0984 5.05887 22.2079 5.2646 22.2079 5.47032C22.2079 5.67605 22.2079 5.98463 21.8796 6.19036Z" fill="black"/>
<path d="M22.2078 10.6131C21.5512 10.6131 21.1134 11.0246 21.1134 11.6418V16.8878C21.1134 18.6364 19.6908 19.9736 17.8304 19.9736H9.0757C7.21532 19.9736 5.79268 18.6364 5.79268 16.8878V8.65875C5.79268 6.91009 7.21532 5.57288 9.0757 5.57288H14.5474C15.204 5.57288 15.6417 5.16143 15.6417 4.54425C15.6417 3.92708 15.204 3.51562 14.5474 3.51562H9.0757C6.01155 3.51562 3.604 5.7786 3.604 8.65875V16.8878C3.604 19.7679 6.01155 22.0309 9.0757 22.0309H17.8304C20.8946 22.0309 23.3021 19.7679 23.3021 16.8878V11.6418C23.3021 11.1275 22.8644 10.6131 22.2078 10.6131Z" fill="black"/>
</svg>
