<svg width="24" height="6" viewBox="0 0 24 6" fill="none" xmlns="http://www.w3.org/2000/svg">
<path d="M2.90995 1.31585C3.62014 1.31585 4.19587 1.89158 4.19587 2.60177C4.19587 3.31197 3.62014 3.8877 2.90995 3.8877C2.19975 3.8877 1.62402 3.31197 1.62402 2.60177C1.62402 1.89158 2.19975 1.31585 2.90995 1.31585Z" stroke="#0E8388" stroke-width="2.57185" stroke-linecap="round" stroke-linejoin="round"/>
<path d="M11.7947 1.31585C12.5049 1.31585 13.0806 1.89158 13.0806 2.60177C13.0806 3.31197 12.5049 3.8877 11.7947 3.8877C11.0845 3.8877 10.5088 3.31197 10.5088 2.60177C10.5088 1.89158 11.0845 1.31585 11.7947 1.31585Z" stroke="#0E8388" stroke-width="2.57185" stroke-linecap="round" stroke-linejoin="round"/>
<path d="M20.679 1.31585C21.3892 1.31585 21.9649 1.89158 21.9649 2.60177C21.9649 3.31197 21.3892 3.8877 20.679 3.8877C19.9688 3.8877 19.3931 3.31197 19.3931 2.60177C19.3931 1.89158 19.9688 1.31585 20.679 1.31585Z" stroke="#0E8388" stroke-width="2.57185" stroke-linecap="round" stroke-linejoin="round"/>
</svg>
