<svg width="30" height="30" viewBox="0 0 30 30" fill="none" xmlns="http://www.w3.org/2000/svg">
<path d="M28.083 14.3114C28.088 16.129 27.6411 17.9219 26.7788 19.5442C25.7564 21.4883 24.1847 23.1235 22.2396 24.2666C20.2945 25.4097 18.053 26.0156 15.766 26.0164C13.8535 26.0211 11.9668 25.5965 10.2596 24.7771L2 27.3935L4.7532 19.5442C3.89092 17.9219 3.44407 16.129 3.44905 14.3114C3.44994 12.1381 4.08752 10.0079 5.2904 8.15952C6.49327 6.3111 8.21391 4.81744 10.2596 3.84583C11.9668 3.02639 13.8535 2.60175 15.766 2.60648H16.4905C19.5109 2.76483 22.3636 3.97632 24.5026 6.00899C26.6415 8.04166 27.9163 10.7527 28.083 13.6229V14.3114Z" fill="white" stroke="#2E4F4F" stroke-width="3.42857" stroke-linecap="round" stroke-linejoin="round"/>
</svg>
