<svg width="64" height="64" viewBox="0 0 64 64" fill="none" xmlns="http://www.w3.org/2000/svg">
<path d="M32 13C35.3137 13 38 10.3137 38 7C38 3.68629 35.3137 1 32 1C28.6863 1 26 3.68629 26 7C26 10.3137 28.6863 13 32 13Z" fill="#E3FBFF"/>
<path d="M44 17V20C44 21.0609 43.5786 22.0783 42.8284 22.8284C42.0783 23.5786 41.0609 24 40 24V17H44Z" fill="#EB975D"/>
<path d="M24 21V24C22.9391 24 21.9217 23.5786 21.1716 22.8284C20.4214 22.0783 20 21.0609 20 20V17H24V21Z" fill="#EB975D"/>
<path d="M40 17V21C37.4946 22.1968 34.7739 22.877 32 23C29.2261 22.877 26.5054 22.1968 24 21V17H40Z" fill="#FFDAAA"/>
<path d="M40 17H24V20H40V17Z" fill="#FFB680"/>
<path d="M49 63H42V44L39 41H32L36 37L55 41V63H49Z" fill="#0F9887"/>
<path d="M39.5 40.5L55 43.763V41L36 37L32 41H39L39.5 40.5Z" fill="#006357"/>
<path d="M45.5 47.5L42.5 44.5H42V63H45.5V47.5Z" fill="#006357"/>
<path d="M15 63H9V41L28 37L32 41H39L42 44V63H15Z" fill="#06CCAB"/>
<path d="M39 41H32L28 37L9 41V44.158L24 41L28 45H35L38 48V63H42V44L39 41Z" fill="#0F9887"/>
<path d="M36 32V37L32 41L28 37V32L28.03 31.94C29.2378 32.6345 30.6067 33.0001 32 33.0001C33.3933 33.0001 34.7622 32.6345 35.97 31.94L36 32Z" fill="#FFB680"/>
<path d="M35.97 31.94C34.7622 32.6345 33.3933 33.0001 32 33.0001C30.6067 33.0001 29.2378 32.6345 28.03 31.94L28 32V35L28.03 34.94C29.2378 35.6345 30.6067 36.0001 32 36.0001C33.3933 36.0001 34.7622 35.6345 35.97 34.94L36 35V32L35.97 31.94Z" fill="#EB975D"/>
<path d="M44 13V17H40H24H20V13H21H32H43H44Z" fill="#006357"/>
<path d="M32 1C30.4087 1 28.8826 1.63214 27.7574 2.75736C26.6321 3.88258 26 5.4087 26 7C26 8.5913 26.6321 10.1174 27.7574 11.2426C28.8826 12.3679 30.4087 13 32 13H21V12C20.9992 10.5552 21.2832 9.12449 21.8357 7.78955C22.3882 6.45461 23.1985 5.24167 24.2201 4.22007C25.2417 3.19847 26.4546 2.38824 27.7896 1.83572C29.1245 1.2832 30.5552 0.999213 32 1Z" fill="#06CCAB"/>
<path d="M32 1C33.4448 0.999213 34.8755 1.2832 36.2104 1.83572C37.5454 2.38824 38.7583 3.19847 39.7799 4.22007C40.8015 5.24167 41.6118 6.45461 42.1643 7.78955C42.7168 9.12449 43.0008 10.5552 43 12V13H32C33.5913 13 35.1174 12.3679 36.2426 11.2426C37.3679 10.1174 38 8.5913 38 7C38 5.4087 37.3679 3.88258 36.2426 2.75736C35.1174 1.63214 33.5913 1 32 1Z" fill="#06CCAB"/>
<path d="M40 24V25C40.0015 26.4018 39.6342 27.7794 38.935 28.9944C38.2358 30.2095 37.2294 31.2192 36.0166 31.9223C34.8039 32.6255 33.4275 32.9972 32.0257 33.0003C30.6238 33.0034 29.2458 32.6378 28.03 31.94C27.4113 31.5918 26.8428 31.1612 26.34 30.66C24.8414 29.1576 23.9999 27.1221 24 25V21C26.5054 22.1968 29.2261 22.877 32 23C34.7739 22.877 37.4946 22.1968 40 21V24Z" fill="#06CCAB"/>
<path d="M32 23C29.2261 22.877 26.5054 22.1968 24 21V24C26.5054 25.1968 29.2261 25.877 32 26C34.7739 25.877 37.4946 25.1968 40 24V21C37.4946 22.1968 34.7739 22.877 32 23Z" fill="#006357"/>
<path d="M32 10C33.6569 10 35 8.65685 35 7C35 5.34315 33.6569 4 32 4C30.3431 4 29 5.34315 29 7C29 8.65685 30.3431 10 32 10Z" fill="#19CFFC"/>
<path d="M40 17V25C40.0015 26.4018 39.6342 27.7794 38.935 28.9944C38.2358 30.2095 37.2294 31.2192 36.0166 31.9223C34.8039 32.6255 33.4275 32.9972 32.0257 33.0003C30.6238 33.0034 29.2458 32.6378 28.03 31.94C27.4113 31.5918 26.8428 31.1612 26.34 30.66C24.8414 29.1576 23.9999 27.1221 24 25V17" stroke="black" stroke-width="2" stroke-linejoin="round"/>
<path d="M24 24C22.9391 24 21.9217 23.5786 21.1716 22.8284C20.4214 22.0783 20 21.0609 20 20V17H44V20C44 21.0609 43.5786 22.0783 42.8284 22.8284C42.0783 23.5786 41.0609 24 40 24" stroke="black" stroke-width="2" stroke-linejoin="round"/>
<path d="M28 32V37L9 41V63H15H42H49H55V41L36 37V32" stroke="black" stroke-width="2" stroke-linejoin="round"/>
<path d="M15 63V50" stroke="black" stroke-width="2" stroke-linejoin="round"/>
<path d="M49 63V50" stroke="black" stroke-width="2" stroke-linejoin="round"/>
<path d="M28 37L32 41L36 37" stroke="black" stroke-width="2" stroke-linejoin="round"/>
<path d="M32 41H39L42 44V63" stroke="black" stroke-width="2" stroke-linejoin="round"/>
<path d="M24 21C26.5054 22.1968 29.2261 22.877 32 23C34.7739 22.877 37.4946 22.1968 40 21" stroke="black" stroke-width="2" stroke-linejoin="round"/>
<path d="M43 13H44V17" stroke="black" stroke-width="2" stroke-linejoin="round"/>
<path d="M20 17V13H21" stroke="black" stroke-width="2" stroke-linejoin="round"/>
<path d="M32 1C30.5552 0.999213 29.1245 1.2832 27.7896 1.83572C26.4546 2.38824 25.2417 3.19847 24.2201 4.22007C23.1985 5.24167 22.3882 6.45461 21.8357 7.78955C21.2832 9.12449 20.9992 10.5552 21 12V13H43V12C43.0008 10.5552 42.7168 9.12449 42.1643 7.78955C41.6118 6.45461 40.8015 5.24167 39.7799 4.22007C38.7583 3.19847 37.5454 2.38824 36.2105 1.83572C34.8755 1.2832 33.4448 0.999213 32 1Z" stroke="black" stroke-width="2" stroke-linejoin="round"/>
<path d="M32 13C35.3137 13 38 10.3137 38 7C38 3.68629 35.3137 1 32 1C28.6863 1 26 3.68629 26 7C26 10.3137 28.6863 13 32 13Z" stroke="black" stroke-width="2" stroke-linejoin="round"/>
<path d="M35 7C35 6.20435 34.6839 5.44129 34.1213 4.87868C33.5587 4.31607 32.7956 4 32 4" stroke="black" stroke-width="2" stroke-linejoin="round"/>
<path d="M29 7C29 7.79565 29.3161 8.55871 29.8787 9.12132C30.4413 9.68393 31.2044 10 32 10" stroke="black" stroke-width="2" stroke-linejoin="round"/>
</svg>
