<svg width="248" height="248" viewBox="0 0 248 248" fill="none" xmlns="http://www.w3.org/2000/svg">
<g clip-path="url(#clip0_25_102)">
<path d="M124 248C192.483 248 248 192.483 248 124C248 55.5167 192.483 0 124 0C55.5167 0 0 55.5167 0 124C0 192.483 55.5167 248 124 248Z" fill="white"/>
<path d="M186 38.75H93C88.7198 38.75 85.25 42.2198 85.25 46.5V201.5C85.25 205.78 88.7198 209.25 93 209.25H186C190.28 209.25 193.75 205.78 193.75 201.5V46.5C193.75 42.2198 190.28 38.75 186 38.75Z" fill="white"/>
<path d="M186 211.188H93C90.4314 211.185 87.9688 210.164 86.1525 208.347C84.3363 206.531 83.3149 204.069 83.3125 201.5V46.5C83.3152 43.9315 84.3367 41.469 86.1529 39.6528C87.969 37.8367 90.4315 36.8152 93 36.8125H186C188.568 36.8152 191.031 37.8367 192.847 39.6528C194.663 41.469 195.685 43.9315 195.688 46.5V201.5C195.685 204.069 194.664 206.531 192.847 208.347C191.031 210.164 188.569 211.185 186 211.188ZM93 40.6875C91.459 40.6892 89.9815 41.3022 88.8919 42.3919C87.8022 43.4815 87.1892 44.959 87.1875 46.5V201.5C87.1892 203.041 87.8022 204.518 88.8919 205.608C89.9815 206.698 91.459 207.311 93 207.312H186C187.541 207.311 189.018 206.698 190.108 205.608C191.198 204.518 191.811 203.041 191.812 201.5V46.5C191.811 44.959 191.198 43.4815 190.108 42.3919C189.018 41.3022 187.541 40.6892 186 40.6875H93Z" fill="#231F20"/>
<path d="M155 48.4375H124C123.486 48.4375 122.993 48.2334 122.63 47.87C122.267 47.5067 122.062 47.0139 122.062 46.5C122.062 45.9861 122.267 45.4933 122.63 45.13C122.993 44.7666 123.486 44.5625 124 44.5625H155C155.514 44.5625 156.007 44.7666 156.37 45.13C156.733 45.4933 156.938 45.9861 156.938 46.5C156.938 47.0139 156.733 47.5067 156.37 47.87C156.007 48.2334 155.514 48.4375 155 48.4375Z" fill="#231F20"/>
<path d="M147.25 203.438H131.75C131.236 203.438 130.743 203.233 130.38 202.87C130.017 202.507 129.812 202.014 129.812 201.5C129.812 200.986 130.017 200.493 130.38 200.13C130.743 199.767 131.236 199.562 131.75 199.562H147.25C147.764 199.562 148.257 199.767 148.62 200.13C148.983 200.493 149.188 200.986 149.188 201.5C149.188 202.014 148.983 202.507 148.62 202.87C148.257 203.233 147.764 203.438 147.25 203.438Z" fill="#231F20"/>
<path d="M124 3.875C147.759 3.875 170.983 10.9202 190.738 24.1197C210.492 37.3192 225.889 56.0802 234.981 78.0302C244.073 99.9801 246.452 124.133 241.817 147.435C237.182 170.737 225.741 192.141 208.941 208.941C192.141 225.741 170.737 237.182 147.435 241.817C124.133 246.452 99.9802 244.073 78.0302 234.981C56.0802 225.889 37.3193 210.492 24.1198 190.738C10.9203 170.983 3.87506 147.758 3.87506 124C3.91105 92.1519 16.5786 61.6186 39.0986 39.0986C61.6186 16.5785 92.152 3.911 124 3.875ZM124 0C99.4752 0 75.501 7.27247 55.1093 20.8978C34.7176 34.5231 18.8243 53.8892 9.43899 76.5472C0.0537268 99.2053 -2.40189 124.138 2.38268 148.191C7.16725 172.245 18.9771 194.34 36.3188 211.681C53.6605 229.023 75.7552 240.833 99.8089 245.617C123.863 250.402 148.795 247.946 171.453 238.561C194.111 229.176 213.477 213.282 227.102 192.891C240.728 172.499 248 148.525 248 124C248 91.1132 234.936 59.5733 211.681 36.3188C188.427 13.0642 156.887 0 124 0Z" fill="#231F20"/>
<path d="M147.25 85.25H46.5C42.2198 85.25 38.75 88.7198 38.75 93V147.25C38.75 151.53 42.2198 155 46.5 155H147.25C151.53 155 155 151.53 155 147.25V93C155 88.7198 151.53 85.25 147.25 85.25Z" fill="white"/>
<path d="M147.25 156.938H46.5C43.9314 156.935 41.4688 155.914 39.6525 154.097C37.8363 152.281 36.8149 149.819 36.8125 147.25V93C36.8152 90.4315 37.8367 87.969 39.6528 86.1529C41.469 84.3367 43.9315 83.3152 46.5 83.3125H147.25C149.818 83.3152 152.281 84.3367 154.097 86.1529C155.913 87.969 156.935 90.4315 156.938 93V147.25C156.935 149.819 155.914 152.281 154.097 154.097C152.281 155.914 149.819 156.935 147.25 156.938ZM46.5 87.1875C44.959 87.1892 43.4815 87.8022 42.3919 88.8919C41.3022 89.9815 40.6892 91.459 40.6875 93V147.25C40.6892 148.791 41.3022 150.268 42.3919 151.358C43.4815 152.448 44.959 153.061 46.5 153.062H147.25C148.791 153.061 150.268 152.448 151.358 151.358C152.448 150.268 153.061 148.791 153.062 147.25V93C153.061 91.459 152.448 89.9815 151.358 88.8919C150.268 87.8022 148.791 87.1892 147.25 87.1875H46.5Z" fill="#231F20"/>
<path d="M127.875 170.5C138.576 170.5 147.25 161.826 147.25 151.125C147.25 140.424 138.576 131.75 127.875 131.75C117.174 131.75 108.5 140.424 108.5 151.125C108.5 161.826 117.174 170.5 127.875 170.5Z" fill="white"/>
<path d="M124 164.688C123.486 164.688 122.993 164.483 122.63 164.12C122.267 163.757 122.062 163.264 122.062 162.75V144.177L117.62 148.62C117.254 148.973 116.765 149.168 116.257 149.164C115.749 149.159 115.263 148.956 114.904 148.596C114.544 148.237 114.341 147.751 114.336 147.243C114.332 146.735 114.527 146.246 114.88 145.88L122.63 138.13C122.901 137.859 123.246 137.675 123.622 137.6C123.998 137.525 124.387 137.564 124.741 137.71C125.095 137.857 125.398 138.105 125.611 138.424C125.824 138.742 125.937 139.117 125.937 139.5V162.75C125.937 163.264 125.733 163.757 125.37 164.12C125.007 164.483 124.514 164.688 124 164.688Z" fill="#231F20"/>
<path d="M131.75 164.688C131.236 164.688 130.743 164.483 130.38 164.12C130.017 163.757 129.812 163.264 129.812 162.75V139.5C129.812 138.986 130.017 138.493 130.38 138.13C130.743 137.767 131.236 137.562 131.75 137.562C132.264 137.562 132.757 137.767 133.12 138.13C133.483 138.493 133.687 138.986 133.687 139.5V158.073L138.13 153.63C138.496 153.277 138.985 153.082 139.493 153.086C140.001 153.091 140.487 153.295 140.846 153.654C141.205 154.013 141.409 154.499 141.414 155.007C141.418 155.515 141.223 156.004 140.87 156.37L133.12 164.12C132.757 164.483 132.264 164.687 131.75 164.688Z" fill="#231F20"/>
<path d="M127.875 172.438C123.66 172.438 119.539 171.188 116.034 168.846C112.53 166.504 109.798 163.175 108.185 159.281C106.572 155.387 106.15 151.101 106.972 146.967C107.794 142.833 109.824 139.035 112.805 136.055C115.785 133.074 119.583 131.044 123.717 130.222C127.851 129.4 132.137 129.822 136.031 131.435C139.925 133.048 143.254 135.78 145.596 139.284C147.938 142.789 149.188 146.91 149.188 151.125C149.18 156.775 146.933 162.192 142.937 166.187C138.942 170.183 133.525 172.43 127.875 172.438ZM127.875 133.688C124.426 133.688 121.055 134.71 118.187 136.626C115.32 138.542 113.085 141.266 111.765 144.452C110.445 147.638 110.1 151.144 110.773 154.527C111.445 157.909 113.106 161.016 115.545 163.455C117.984 165.894 121.091 167.555 124.473 168.227C127.856 168.9 131.362 168.555 134.548 167.235C137.734 165.915 140.458 163.68 142.374 160.813C144.29 157.945 145.313 154.574 145.313 151.125C145.307 146.502 143.469 142.07 140.2 138.8C136.93 135.531 132.498 133.693 127.875 133.688Z" fill="#231F20"/>
<path d="M139.5 102.688H38.75C38.2361 102.688 37.7433 102.483 37.38 102.12C37.0166 101.757 36.8125 101.264 36.8125 100.75C36.8125 100.236 37.0166 99.7433 37.38 99.38C37.7433 99.0166 38.2361 98.8125 38.75 98.8125H139.5C140.014 98.8125 140.507 99.0166 140.87 99.38C141.233 99.7433 141.438 100.236 141.438 100.75C141.438 101.264 141.233 101.757 140.87 102.12C140.507 102.483 140.014 102.688 139.5 102.688Z" fill="#231F20"/>
<path d="M69.75 125.938C67.834 125.938 65.961 125.369 64.3679 124.305C62.7748 123.24 61.5331 121.727 60.7999 119.957C60.0667 118.187 59.8749 116.239 60.2486 114.36C60.6224 112.481 61.5451 110.755 62.8999 109.4C64.2547 108.045 65.9809 107.122 67.8601 106.749C69.7393 106.375 71.6871 106.567 73.4573 107.3C75.2274 108.033 76.7404 109.275 77.8049 110.868C78.8693 112.461 79.4375 114.334 79.4375 116.25C79.4348 118.818 78.4133 121.281 76.5972 123.097C74.781 124.913 72.3185 125.935 69.75 125.938ZM69.75 110.438C68.6004 110.438 67.4766 110.778 66.5208 111.417C65.5649 112.056 64.8199 112.964 64.38 114.026C63.94 115.088 63.8249 116.256 64.0492 117.384C64.2735 118.511 64.8271 119.547 65.6399 120.36C66.4528 121.173 67.4885 121.727 68.616 121.951C69.7436 122.175 70.9123 122.06 71.9743 121.62C73.0364 121.18 73.9442 120.435 74.5829 119.479C75.2216 118.523 75.5625 117.4 75.5625 116.25C75.5608 114.709 74.9478 113.232 73.8581 112.142C72.7685 111.052 71.291 110.439 69.75 110.438Z" fill="#231F20"/>
<path d="M85.25 149.188H54.25C53.7361 149.188 53.2433 148.983 52.88 148.62C52.5166 148.257 52.3125 147.764 52.3125 147.25V144.15C52.3125 139.525 54.1497 135.09 57.4198 131.82C60.69 128.55 65.1253 126.713 69.75 126.713C74.3747 126.713 78.81 128.55 82.0802 131.82C85.3503 135.09 87.1875 139.525 87.1875 144.15V147.25C87.1875 147.764 86.9834 148.257 86.62 148.62C86.2567 148.983 85.7639 149.188 85.25 149.188ZM56.1875 145.313H83.3125V144.15C83.3125 140.553 81.8836 137.103 79.3401 134.56C76.7967 132.016 73.347 130.588 69.75 130.588C66.153 130.588 62.7033 132.016 60.1599 134.56C57.6164 137.103 56.1875 140.553 56.1875 144.15V145.313Z" fill="#231F20"/>
<path d="M124 118.188H93C92.4861 118.188 91.9933 117.983 91.63 117.62C91.2666 117.257 91.0625 116.764 91.0625 116.25C91.0625 115.736 91.2666 115.243 91.63 114.88C91.9933 114.517 92.4861 114.312 93 114.312H124C124.514 114.312 125.007 114.517 125.37 114.88C125.733 115.243 125.938 115.736 125.938 116.25C125.938 116.764 125.733 117.257 125.37 117.62C125.007 117.983 124.514 118.188 124 118.188Z" fill="#231F20"/>
<path d="M108.5 133.688H93C92.4861 133.688 91.9933 133.483 91.63 133.12C91.2666 132.757 91.0625 132.264 91.0625 131.75C91.0625 131.236 91.2666 130.743 91.63 130.38C91.9933 130.017 92.4861 129.812 93 129.812H108.5C109.014 129.812 109.507 130.017 109.87 130.38C110.233 130.743 110.438 131.236 110.438 131.75C110.438 132.264 110.233 132.757 109.87 133.12C109.507 133.483 109.014 133.688 108.5 133.688Z" fill="#231F20"/>
<path d="M178.25 195.688H100.75C98.1814 195.685 95.7188 194.664 93.9025 192.847C92.0863 191.031 91.0649 188.569 91.0625 186V162.75C91.0625 162.236 91.2666 161.743 91.63 161.38C91.9933 161.017 92.4861 160.812 93 160.812C93.5139 160.812 94.0067 161.017 94.37 161.38C94.7334 161.743 94.9375 162.236 94.9375 162.75V186C94.9392 187.541 95.5522 189.018 96.6419 190.108C97.7315 191.198 99.209 191.811 100.75 191.812H178.25C179.791 191.811 181.268 191.198 182.358 190.108C183.448 189.018 184.061 187.541 184.062 186V62C184.061 60.459 183.448 58.9815 182.358 57.8919C181.268 56.8022 179.791 56.1892 178.25 56.1875H100.75C99.209 56.1892 97.7315 56.8022 96.6419 57.8919C95.5522 58.9815 94.9392 60.459 94.9375 62V77.5C94.9375 78.0139 94.7334 78.5067 94.37 78.87C94.0067 79.2334 93.5139 79.4375 93 79.4375C92.4861 79.4375 91.9933 79.2334 91.63 78.87C91.2666 78.5067 91.0625 78.0139 91.0625 77.5V62C91.0652 59.4315 92.0867 56.969 93.9029 55.1528C95.719 53.3367 98.1815 52.3152 100.75 52.3125H178.25C180.818 52.3152 183.281 53.3367 185.097 55.1528C186.913 56.969 187.935 59.4315 187.938 62V186C187.935 188.569 186.914 191.031 185.097 192.847C183.281 194.664 180.819 195.685 178.25 195.688Z" fill="#231F20"/>
</g>
<defs>
<clipPath id="clip0_25_102">
<rect width="248" height="248" fill="white"/>
</clipPath>
</defs>
</svg>
