<svg width="35" height="35" viewBox="0 0 35 35" fill="none" xmlns="http://www.w3.org/2000/svg">
<g clip-path="url(#clip0_355_844)">
<path d="M24.0835 34.0464H5.27534C5.19318 34.0464 5.10759 34.0361 5.02543 34.019C4.89192 33.9882 4.19012 33.8101 3.52256 33.1083C2.96455 32.5195 2.30041 31.4138 2.30041 29.4727C2.30041 26.5183 2.27987 5.50208 2.27987 4.9646C2.27644 4.82082 2.27987 4.02317 2.54689 3.14678C2.97139 1.74661 3.87859 0.81887 5.09732 0.527881C5.18633 0.50734 5.27876 0.49707 5.36777 0.49707H27.2262C27.2535 0.49707 27.2844 0.49707 27.3117 0.500494C27.4247 0.507341 28.4586 0.596349 29.5233 1.1304C31.0843 1.91093 31.9436 3.27002 31.9436 4.95433C31.9436 8.64133 31.947 27.3399 31.947 27.5282C31.947 27.8842 31.7861 28.2232 31.5054 28.4457L24.8161 33.7896C24.6073 33.9573 24.3471 34.0464 24.0835 34.0464ZM5.48759 31.7013H23.6727L29.6054 26.9633C29.6054 23.7933 29.602 8.27845 29.602 4.95433C29.602 4.17722 29.2597 3.63632 28.527 3.2529C27.9451 2.94822 27.3254 2.86264 27.1748 2.8421H5.53894C4.64886 3.17759 4.62832 4.90983 4.62832 4.93037C4.62832 4.93721 4.62832 4.94748 4.62832 4.95433C4.62832 5.17001 4.64886 26.4943 4.64886 29.4727C4.64886 31.0851 5.25822 31.5747 5.48759 31.7013Z" fill="#2E4F4F"/>
<path d="M16.2129 7.22383H8.27744C7.56195 7.22383 6.9834 6.64528 6.9834 5.92979C6.9834 5.2143 7.56195 4.63574 8.27744 4.63574H16.2129C16.9284 4.63574 17.5069 5.2143 17.5069 5.92979C17.5035 6.64528 16.9249 7.22383 16.2129 7.22383Z" fill="#2E4F4F"/>
<path d="M26.0449 13.7795H8.27744C7.56195 13.7795 6.9834 13.2009 6.9834 12.4855C6.9834 11.77 7.56195 11.1914 8.27744 11.1914H26.0449C26.7604 11.1914 27.3389 11.77 27.3389 12.4855C27.3355 13.1975 26.7569 13.7795 26.0449 13.7795Z" fill="#2E4F4F"/>
<path d="M26.0449 20.1604H8.27744C7.56195 20.1604 6.9834 19.5818 6.9834 18.8663C6.9834 18.1508 7.56195 17.5723 8.27744 17.5723H26.0449C26.7604 17.5723 27.3389 18.1508 27.3389 18.8663C27.3355 19.5818 26.7569 20.1604 26.0449 20.1604Z" fill="#2E4F4F"/>
<path d="M22.2481 31.202C21.5327 31.202 20.9541 30.6235 20.9541 29.908V24.5606C20.9541 23.8452 21.5327 23.2666 22.2481 23.2666H27.7667C28.4822 23.2666 29.0607 23.8452 29.0607 24.5606C29.0607 25.2761 28.4822 25.8547 27.7667 25.8547H23.5422V29.908C23.5422 30.6201 22.9636 31.202 22.2481 31.202Z" fill="#2E4F4F"/>
</g>
<defs>
<clipPath id="clip0_355_844">
<rect width="34.234" height="34.234" fill="white" transform="translate(0 0.154297)"/>
</clipPath>
</defs>
</svg>
