<svg width="35" height="33" viewBox="0 0 35 33" fill="none" xmlns="http://www.w3.org/2000/svg">
<path d="M27.6504 32.1539H6.58337C5.53575 32.1539 4.53103 31.7378 3.79025 30.997C3.04947 30.2562 2.6333 29.2516 2.6333 28.204V15.0374C2.6333 14.6882 2.77202 14.3533 3.01895 14.1063C3.26588 13.8594 3.60078 13.7207 3.94999 13.7207C4.2992 13.7207 4.63411 13.8594 4.88103 14.1063C5.12796 14.3533 5.26668 14.6882 5.26668 15.0374V28.204C5.26668 28.5532 5.40541 28.8881 5.65233 29.135C5.89926 29.3819 6.23417 29.5206 6.58337 29.5206H27.6504C27.9996 29.5206 28.3345 29.3819 28.5815 29.135C28.8284 28.8881 28.9671 28.5532 28.9671 28.204V15.0374C28.9671 14.6882 29.1058 14.3533 29.3528 14.1063C29.5997 13.8594 29.9346 13.7207 30.2838 13.7207C30.633 13.7207 30.9679 13.8594 31.2149 14.1063C31.4618 14.3533 31.6005 14.6882 31.6005 15.0374V28.204C31.6005 29.2516 31.1843 30.2562 30.4436 30.997C29.7028 31.7378 28.6981 32.1539 27.6504 32.1539Z" fill="#2E4F4F"/>
<path d="M15.8005 32.1549H9.21708C8.86787 32.1549 8.53297 32.0162 8.28604 31.7692C8.03911 31.5223 7.90039 31.1874 7.90039 30.8382V22.9383C7.90039 21.8907 8.31656 20.886 9.05734 20.1452C9.79812 19.4044 10.8028 18.9883 11.8505 18.9883H13.1672C14.2148 18.9883 15.2195 19.4044 15.9603 20.1452C16.7011 20.886 17.1172 21.8907 17.1172 22.9383V30.8382C17.1172 31.1874 16.9785 31.5223 16.7316 31.7692C16.4847 32.0162 16.1497 32.1549 15.8005 32.1549ZM10.5338 29.5216H14.4838V22.9383C14.4838 22.5891 14.3451 22.2542 14.0982 22.0072C13.8513 21.7603 13.5164 21.6216 13.1672 21.6216H11.8505C11.5013 21.6216 11.1664 21.7603 10.9194 22.0072C10.6725 22.2542 10.5338 22.5891 10.5338 22.9383V29.5216Z" fill="#2E4F4F"/>
<path d="M28.9672 16.3536C27.5704 16.3536 26.2307 15.7987 25.243 14.8111C24.2553 13.8234 23.7004 12.4838 23.7004 11.087C23.7004 10.7378 23.8392 10.4029 24.0861 10.156C24.333 9.90904 24.6679 9.77033 25.0171 9.77033C25.3663 9.77033 25.7012 9.90904 25.9482 10.156C26.1951 10.4029 26.3338 10.7378 26.3338 11.087C26.3338 11.7854 26.6113 12.4552 27.1051 12.949C27.599 13.4429 28.2688 13.7203 28.9672 13.7203C29.6656 13.7203 30.3354 13.4429 30.8293 12.949C31.3231 12.4552 31.6006 11.7854 31.6006 11.087V10.0863L28.1509 3.18703H6.08311L2.63338 10.0863V11.087C2.63338 11.7854 2.91083 12.4552 3.40468 12.949C3.89854 13.4429 4.56835 13.7203 5.26676 13.7203C5.96518 13.7203 6.63499 13.4429 7.12885 12.949C7.6227 12.4552 7.90015 11.7854 7.90015 11.087C7.90015 10.7378 8.03887 10.4029 8.2858 10.156C8.53272 9.90904 8.86763 9.77033 9.21684 9.77033C9.56604 9.77033 9.90095 9.90904 10.1479 10.156C10.3948 10.4029 10.5335 10.7378 10.5335 11.087C10.5335 12.4838 9.97864 13.8234 8.99093 14.8111C8.00322 15.7987 6.6636 16.3536 5.26676 16.3536C3.86993 16.3536 2.53031 15.7987 1.5426 14.8111C0.554889 13.8234 0 12.4838 0 11.087V9.77033C0.00123582 9.56421 0.0508454 9.36127 0.144836 9.17783L4.09491 1.27787C4.20433 1.06074 4.37173 0.878139 4.57857 0.750318C4.78542 0.622498 5.02361 0.554448 5.26676 0.553711H28.9672C29.2104 0.554448 29.4485 0.622498 29.6554 0.750318C29.8622 0.878139 30.0296 1.06074 30.1391 1.27787L34.0891 9.17783C34.1831 9.36127 34.2327 9.56421 34.234 9.77033V11.087C34.234 12.4838 33.6791 13.8234 32.6914 14.8111C31.7037 15.7987 30.364 16.3536 28.9672 16.3536Z" fill="#2E4F4F"/>
<path d="M13.1667 16.3548C11.7698 16.3548 10.4302 15.7999 9.4425 14.8122C8.45479 13.8245 7.8999 12.4849 7.8999 11.0881C7.8999 10.7389 8.03863 10.404 8.28555 10.1571C8.53248 9.9102 8.86739 9.77148 9.21659 9.77148C9.5658 9.77148 9.90071 9.9102 10.1476 10.1571C10.3946 10.404 10.5333 10.7389 10.5333 11.0881C10.5333 11.7865 10.8107 12.4563 11.3046 12.9502C11.7984 13.444 12.4683 13.7215 13.1667 13.7215C13.8651 13.7215 14.5349 13.444 15.0287 12.9502C15.5226 12.4563 15.8 11.7865 15.8 11.0881C15.8 10.7389 15.9388 10.404 16.1857 10.1571C16.4326 9.9102 16.7675 9.77148 17.1167 9.77148C17.4659 9.77148 17.8009 9.9102 18.0478 10.1571C18.2947 10.404 18.4334 10.7389 18.4334 11.0881C18.4334 12.4849 17.8785 13.8245 16.8908 14.8122C15.9031 15.7999 14.5635 16.3548 13.1667 16.3548Z" fill="#2E4F4F"/>
<path d="M21.0671 16.3548C19.6702 16.3548 18.3306 15.7999 17.3429 14.8122C16.3552 13.8245 15.8003 12.4849 15.8003 11.0881C15.8003 10.7389 15.939 10.404 16.1859 10.1571C16.4329 9.9102 16.7678 9.77148 17.117 9.77148C17.4662 9.77148 17.8011 9.9102 18.048 10.1571C18.295 10.404 18.4337 10.7389 18.4337 11.0881C18.4337 11.7865 18.7111 12.4563 19.205 12.9502C19.6988 13.444 20.3686 13.7215 21.0671 13.7215C21.7655 13.7215 22.4353 13.444 22.9291 12.9502C23.423 12.4563 23.7004 11.7865 23.7004 11.0881C23.7004 10.7389 23.8392 10.404 24.0861 10.1571C24.333 9.9102 24.6679 9.77148 25.0171 9.77148C25.3663 9.77148 25.7012 9.9102 25.9482 10.1571C26.1951 10.404 26.3338 10.7389 26.3338 11.0881C26.3338 12.4849 25.7789 13.8245 24.7912 14.8122C23.8035 15.7999 22.4639 16.3548 21.0671 16.3548Z" fill="#2E4F4F"/>
<path d="M25.0173 22.938H21.0672C20.718 22.938 20.3831 22.7993 20.1361 22.5524C19.8892 22.3054 19.7505 21.9705 19.7505 21.6213C19.7505 21.2721 19.8892 20.9372 20.1361 20.6903C20.3831 20.4434 20.718 20.3047 21.0672 20.3047H25.0173C25.3665 20.3047 25.7014 20.4434 25.9483 20.6903C26.1952 20.9372 26.3339 21.2721 26.3339 21.6213C26.3339 21.9705 26.1952 22.3054 25.9483 22.5524C25.7014 22.7993 25.3665 22.938 25.0173 22.938Z" fill="#2E4F4F"/>
</svg>
