<svg width="31" height="31" viewBox="0 0 31 31" fill="none" xmlns="http://www.w3.org/2000/svg">
<ellipse cx="15.1555" cy="15.9305" rx="14.3977" ry="14.3977" transform="rotate(-90 15.1555 15.9305)" fill="white" stroke="#0E8388" stroke-width="1.1585"/>
<path d="M14.0035 25.4895C14.0035 24.7255 14.6229 24.106 15.387 24.106C16.1511 24.106 16.7705 24.7255 16.7705 25.4895C16.7705 26.2536 16.1511 26.873 15.387 26.873C14.6229 26.873 14.0035 26.2536 14.0035 25.4895Z" stroke="#0E8388" stroke-width="2.767" stroke-linecap="round" stroke-linejoin="round"/>
<path d="M14.0035 15.931C14.0035 15.1669 14.6229 14.5475 15.387 14.5475C16.1511 14.5475 16.7705 15.1669 16.7705 15.931C16.7705 16.695 16.1511 17.3145 15.387 17.3145C14.6229 17.3145 14.0035 16.695 14.0035 15.931Z" stroke="#0E8388" stroke-width="2.767" stroke-linecap="round" stroke-linejoin="round"/>
<path d="M14.0035 6.37236C14.0035 5.60828 14.6229 4.98886 15.387 4.98886C16.1511 4.98886 16.7705 5.60828 16.7705 6.37236C16.7705 7.13645 16.1511 7.75586 15.387 7.75586C14.6229 7.75586 14.0035 7.13645 14.0035 6.37236Z" stroke="#0E8388" stroke-width="2.767" stroke-linecap="round" stroke-linejoin="round"/>
</svg>
