<svg width="96" height="91" viewBox="0 0 96 91" fill="none" xmlns="http://www.w3.org/2000/svg">
<g clip-path="url(#clip0_1_20)">
<path d="M47.8842 84.851C68.9344 84.851 85.9989 68.5461 85.9989 48.433C85.9989 28.3199 68.9344 12.015 47.8842 12.015C26.8341 12.015 9.76953 28.3199 9.76953 48.433C9.76953 68.5461 26.8341 84.851 47.8842 84.851Z" fill="#9AE0FF"/>
<path d="M88.0418 74.296L66.0247 63.313H37.4382L2.87354 28.724L10.0772 22.39L41.4864 54.547H68.5711L92.8886 66.556L88.0418 74.296Z" fill="#F4F2E8"/>
<path d="M27.8033 13.175C31.3942 8.56298 38.22 7.59898 43.0511 11.026C47.8832 14.457 48.889 20.977 45.3013 25.595L27.8033 13.175Z" fill="#F4F2E8"/>
<path d="M74.9825 77.556H25.4862V85.228H74.9825V77.556Z" fill="#68C1E0"/>
<path d="M95.1178 65.95C94.942 65.36 94.5234 64.869 93.954 64.59L77.3007 56.366V5.76901C77.3007 4.54701 76.2625 3.55701 74.9825 3.55701H52.6022C52.1962 3.55701 51.7964 3.66001 51.4458 3.85101L43.1181 8.43701C41.1264 7.34201 38.8898 6.75901 36.5633 6.75901C32.3978 6.75901 28.4281 8.66401 25.9446 11.854L24.562 13.631L45.7827 28.694L47.1642 26.917C50.8189 22.212 50.5174 15.863 46.8502 11.493L53.2229 7.98401H72.6664V54.078L69.6355 52.582C69.3069 52.418 68.9416 52.335 68.5711 52.335H54.9811L57.7724 46.893H66.6653V42.466H42.8637V46.893H52.6106L49.8194 52.335H42.4932L11.7717 20.878C10.903 19.989 9.44615 19.935 8.5084 20.761L1.30368 27.096C0.846323 27.498 0.57735 28.058 0.557464 28.652C0.536533 29.248 0.766782 29.825 1.19693 30.255L35.7616 64.843C35.8777 64.96 36.0086 65.061 36.1467 65.149V75.343H23.169V87.443H77.3007V75.343H62.9593V65.528H65.4554L86.9712 76.26C87.3113 76.43 87.6797 76.511 88.0397 76.511C88.832 76.511 89.5971 76.124 90.0304 75.433L94.8771 67.693C95.2078 67.168 95.2937 66.538 95.1178 65.95ZM44.5676 22.315L31.2979 12.896C32.7819 11.793 34.6145 11.187 36.5612 11.187C38.4126 11.187 40.1782 11.746 41.6685 12.804C44.8229 15.042 45.9062 18.969 44.5676 22.315ZM72.6674 79.77V83.015H27.8023V79.77H36.1467V79.771H62.9593V79.77H72.6674ZM40.781 75.343V65.53H58.326V75.343H40.781ZM87.1763 71.367L67.0954 61.352C66.7647 61.186 66.3963 61.101 66.0237 61.101H38.4304L6.17869 28.827L9.95269 25.509L39.7909 56.059C40.2295 56.508 40.8428 56.763 41.4854 56.763H68.0059L89.6347 67.442L87.1763 71.367Z" fill="#3B6A75"/>
</g>
<defs>
<clipPath id="clip0_1_20">
<rect width="95.2396" height="91" fill="white" transform="translate(0.26123)"/>
</clipPath>
</defs>
</svg>
