<svg width="27" height="25" viewBox="0 0 27 25" fill="none" xmlns="http://www.w3.org/2000/svg">
<path fill-rule="evenodd" clip-rule="evenodd" d="M13.4377 0.181641C6.26492 0.181641 0.39624 5.75872 0.39624 12.5751C0.39624 19.3916 6.26492 24.9687 13.4377 24.9687C20.6106 24.9687 26.4793 19.3916 26.4793 12.5751C26.4793 5.75872 20.6106 0.181641 13.4377 0.181641ZM22.4364 7.61774H18.6544C18.2631 6.00659 17.611 4.6433 16.8285 3.15608C19.176 4.02363 21.2627 5.51085 22.4364 7.61774ZM13.4377 2.66034C14.4811 4.14756 15.394 5.75872 15.9156 7.61774H10.9599C11.4815 5.88265 12.3944 4.14756 13.4377 2.66034ZM3.39579 15.0538C3.13496 14.3102 3.00454 13.4427 3.00454 12.5751C3.00454 11.7076 3.13496 10.8401 3.39579 10.0964H7.8299C7.69949 10.964 7.69949 11.7076 7.69949 12.5751C7.69949 13.4427 7.8299 14.1863 7.8299 15.0538H3.39579ZM4.43911 17.5325H8.22115C8.61239 19.1437 9.26447 20.507 10.047 21.9942C7.69949 21.1267 5.61284 19.6394 4.43911 17.5325ZM8.22115 7.61774H4.43911C5.74326 5.51085 7.69949 4.02363 10.047 3.15608C9.26447 4.6433 8.61239 6.00659 8.22115 7.61774ZM13.4377 22.49C12.3944 21.0027 11.4815 19.3916 10.9599 17.5325H15.9156C15.394 19.2676 14.4811 21.0027 13.4377 22.49ZM16.4373 15.0538H10.4382C10.3078 14.1863 10.1774 13.4427 10.1774 12.5751C10.1774 11.7076 10.3078 10.964 10.4382 10.0964H16.5677C16.6981 10.964 16.8285 11.7076 16.8285 12.5751C16.8285 13.4427 16.5677 14.1863 16.4373 15.0538ZM16.8285 21.9942C17.611 20.6309 18.2631 19.1437 18.6544 17.5325H22.4364C21.2627 19.6394 19.176 21.1267 16.8285 21.9942ZM19.176 15.0538C19.3064 14.1863 19.3064 13.4427 19.3064 12.5751C19.3064 11.7076 19.176 10.964 19.176 10.0964H23.6101C23.871 10.8401 24.0014 11.7076 24.0014 12.5751C24.0014 13.4427 23.871 14.3102 23.6101 15.0538H19.176Z" fill="black"/>
</svg>
