<svg width="93" height="89" viewBox="0 0 93 89" fill="none" xmlns="http://www.w3.org/2000/svg">
<path d="M20.9277 13.1825H67.9149C71.9138 13.1825 75.0558 16.1806 75.0558 19.9963V43.9809L75.1986 70.4184C75.1986 74.2342 72.0566 77.2322 68.0577 77.2322H20.9277" fill="#E5E5E5"/>
<path d="M48.6344 60.0614C48.6344 60.0614 44.9211 47.6603 62.3449 39.3474C61.6308 42.8906 61.3452 43.9808 61.3452 43.9808L65.7725 37.7121C65.7725 37.7121 80.6256 36.3494 86.3383 29.3993C84.9101 34.7141 81.911 39.0749 81.911 39.0749L77.7692 41.8004L81.0541 41.5279C81.0541 41.5279 78.9118 46.8426 76.1982 49.1593C74.7701 49.4319 69.4858 49.8407 69.4858 49.8407L74.056 51.7486C74.056 51.7486 70.914 55.2917 68.2004 57.0633C65.2013 57.881 59.6314 55.428 59.6314 55.428C59.6314 55.428 60.9167 57.6084 64.0587 58.5624C60.4883 61.6967 52.3476 60.7428 48.6344 60.0614Z" fill="#FFD766"/>
<path d="M48.6344 60.0614C48.6344 60.0614 44.9211 47.6603 62.3449 39.3474C61.6308 42.8906 61.3452 43.9808 61.3452 43.9808L65.7725 37.7121C65.7725 37.7121 80.6256 36.3494 86.3383 29.3993C84.9101 34.7141 81.911 39.0749 81.911 39.0749L77.7692 41.8004L81.0541 41.5279C81.0541 41.5279 78.9118 46.8426 76.1982 49.1593C74.7701 49.4319 69.4858 49.8407 69.4858 49.8407L74.056 51.7486C74.056 51.7486 70.914 55.2917 68.2004 57.0633C65.2013 57.881 59.6314 55.428 59.6314 55.428C59.6314 55.428 60.9167 57.6084 64.0587 58.5624C60.4883 61.6967 52.3476 60.7428 48.6344 60.0614Z" stroke="#2C3E50" stroke-width="1.48893" stroke-miterlimit="10" stroke-linecap="round" stroke-linejoin="round"/>
<path d="M42.3506 69.0557C42.3506 69.0557 48.6346 54.0654 71.3426 42.0731" stroke="#2C3E50" stroke-width="1.48893" stroke-miterlimit="10" stroke-linecap="round" stroke-linejoin="round"/>
<path d="M22.356 70.4184C22.356 74.2341 19.214 77.2322 15.2151 77.2322H15.5008C11.359 77.2322 8.07422 74.5067 8.07422 70.4184H18.0715" fill="#B7B7B7"/>
<path d="M22.356 19.9963C22.356 16.1806 19.214 13.1825 15.2151 13.1825H15.5008C11.359 13.1825 8.07422 15.908 8.07422 19.9963H18.0715" fill="#B7B7B7"/>
<path d="M75.1987 57.4722V70.4185C75.1987 74.2342 72.0567 77.2323 68.0578 77.2323H15.5008C11.359 77.2323 8.07422 74.5067 8.07422 70.4185H18.0715" stroke="#2C3E50" stroke-width="1.48893" stroke-miterlimit="10" stroke-linecap="round" stroke-linejoin="round"/>
<path d="M15.2148 13.1825H67.9147C71.9136 13.1825 75.0556 16.1806 75.0556 19.9963V30.6258" stroke="#2C3E50" stroke-width="1.48893" stroke-miterlimit="10" stroke-linecap="round" stroke-linejoin="round"/>
<path d="M15.6436 77.2322C22.9273 77.2322 22.356 69.7371 22.356 69.7371V19.9963C22.356 16.1806 19.214 13.1825 15.2151 13.1825C11.2162 13.1825 8.07422 16.1806 8.07422 19.9963H18.0715" stroke="#2C3E50" stroke-width="1.48893" stroke-miterlimit="10" stroke-linecap="round" stroke-linejoin="round"/>
<path d="M36.6367 24.0846H62.344" stroke="#2C3E50" stroke-width="1.48893" stroke-miterlimit="10" stroke-linecap="round" stroke-linejoin="round"/>
<path d="M36.6367 30.8984H62.344" stroke="#2C3E50" stroke-width="1.48893" stroke-miterlimit="10" stroke-linecap="round" stroke-linejoin="round"/>
<path d="M36.6367 37.7122H55.2031" stroke="#2C3E50" stroke-width="1.48893" stroke-miterlimit="10" stroke-linecap="round" stroke-linejoin="round"/>
</svg>
