<svg width="80" height="70" viewBox="0 0 80 70" fill="none" xmlns="http://www.w3.org/2000/svg">
<path d="M64.3221 69.6042H15.8107C13.3983 69.6042 11.0848 68.6974 9.37897 67.0833C7.67316 65.4692 6.71484 63.28 6.71484 60.9973V32.3076C6.71484 31.5467 7.03428 30.8169 7.60289 30.2789C8.17149 29.7409 8.94268 29.4386 9.7468 29.4386C10.5509 29.4386 11.3221 29.7409 11.8907 30.2789C12.4593 30.8169 12.7788 31.5467 12.7788 32.3076V60.9973C12.7788 61.7582 13.0982 62.4879 13.6668 63.0259C14.2354 63.564 15.0066 63.8662 15.8107 63.8662H64.3221C65.1262 63.8662 65.8974 63.564 66.466 63.0259C67.0346 62.4879 67.3541 61.7582 67.3541 60.9973V32.3076C67.3541 31.5467 67.6735 30.8169 68.2421 30.2789C68.8107 29.7409 69.5819 29.4386 70.386 29.4386C71.1901 29.4386 71.9613 29.7409 72.5299 30.2789C73.0985 30.8169 73.418 31.5467 73.418 32.3076V60.9973C73.418 63.28 72.4597 65.4692 70.7539 67.0833C69.0481 68.6974 66.7345 69.6042 64.3221 69.6042Z" fill="#CBE4DE"/>
<path d="M37.0336 69.6041H21.8738C21.0696 69.6041 20.2984 69.3019 19.7298 68.7638C19.1612 68.2258 18.8418 67.4961 18.8418 66.7352V49.5213C18.8418 47.2386 19.8001 45.0494 21.5059 43.4353C23.2117 41.8212 25.5253 40.9144 27.9377 40.9144H30.9696C33.382 40.9144 35.6956 41.8212 37.4014 43.4353C39.1072 45.0494 40.0655 47.2386 40.0655 49.5213V66.7352C40.0655 67.4961 39.7461 68.2258 39.1775 68.7638C38.6089 69.3019 37.8377 69.6041 37.0336 69.6041ZM24.9057 63.8662H34.0016V49.5213C34.0016 48.7604 33.6822 48.0307 33.1136 47.4927C32.545 46.9546 31.7738 46.6524 30.9696 46.6524H27.9377C27.1336 46.6524 26.3624 46.9546 25.7938 47.4927C25.2252 48.0307 24.9057 48.7604 24.9057 49.5213V63.8662Z" fill="#CBE4DE"/>
<path d="M67.3535 35.1765C64.137 35.1765 61.0523 33.9675 58.7778 31.8153C56.5034 29.6632 55.2257 26.7443 55.2257 23.7007C55.2257 22.9398 55.5451 22.21 56.1137 21.672C56.6823 21.134 57.4535 20.8317 58.2576 20.8317C59.0618 20.8317 59.833 21.134 60.4016 21.672C60.9702 22.21 61.2896 22.9398 61.2896 23.7007C61.2896 25.2225 61.9285 26.6819 63.0657 27.758C64.2029 28.8341 65.7453 29.4386 67.3535 29.4386C68.9618 29.4386 70.5042 28.8341 71.6414 27.758C72.7786 26.6819 73.4174 25.2225 73.4174 23.7007V21.5202L65.4737 6.48684H14.658L6.71431 21.5202V23.7007C6.71431 25.2225 7.35319 26.6819 8.49039 27.758C9.6276 28.8341 11.17 29.4386 12.7782 29.4386C14.3865 29.4386 15.9289 28.8341 17.0661 27.758C18.2033 26.6819 18.8422 25.2225 18.8422 23.7007C18.8422 22.9398 19.1616 22.21 19.7302 21.672C20.2988 21.134 21.07 20.8317 21.8741 20.8317C22.6782 20.8317 23.4494 21.134 24.018 21.672C24.5866 22.21 24.9061 22.9398 24.9061 23.7007C24.9061 26.7443 23.6283 29.6632 21.3539 31.8153C19.0795 33.9675 15.9947 35.1765 12.7782 35.1765C9.56173 35.1765 6.47696 33.9675 4.20255 31.8153C1.92814 29.6632 0.650391 26.7443 0.650391 23.7007V20.8317C0.653236 20.3826 0.767473 19.9404 0.983906 19.5407L10.0798 2.32684C10.3317 1.8537 10.7172 1.45582 11.1935 1.1773C11.6698 0.898787 12.2183 0.750507 12.7782 0.748901H67.3535C67.9134 0.750507 68.4619 0.898787 68.9382 1.1773C69.4145 1.45582 69.8 1.8537 70.052 2.32684L79.1478 19.5407C79.3643 19.9404 79.4785 20.3826 79.4814 20.8317V23.7007C79.4814 26.7443 78.2036 29.6632 75.9292 31.8153C73.6548 33.9675 70.57 35.1765 67.3535 35.1765Z" fill="#CBE4DE"/>
<path d="M30.9696 35.1765C27.7531 35.1765 24.6684 33.9675 22.394 31.8153C20.1195 29.6632 18.8418 26.7442 18.8418 23.7006C18.8418 22.9397 19.1612 22.21 19.7298 21.672C20.2984 21.1339 21.0696 20.8317 21.8738 20.8317C22.6779 20.8317 23.4491 21.1339 24.0177 21.672C24.5863 22.21 24.9057 22.9397 24.9057 23.7006C24.9057 25.2224 25.5446 26.6819 26.6818 27.758C27.819 28.834 29.3614 29.4386 30.9696 29.4386C32.5779 29.4386 34.1203 28.834 35.2575 27.758C36.3947 26.6819 37.0336 25.2224 37.0336 23.7006C37.0336 22.9397 37.353 22.21 37.9216 21.672C38.4902 21.1339 39.2614 20.8317 40.0655 20.8317C40.8696 20.8317 41.6408 21.1339 42.2094 21.672C42.778 22.21 43.0975 22.9397 43.0975 23.7006C43.0975 26.7442 41.8197 29.6632 39.5453 31.8153C37.2709 33.9675 34.1861 35.1765 30.9696 35.1765Z" fill="#CBE4DE"/>
<path d="M49.161 35.1765C45.9445 35.1765 42.8598 33.9675 40.5854 31.8153C38.311 29.6632 37.0332 26.7442 37.0332 23.7006C37.0332 22.9397 37.3526 22.21 37.9212 21.672C38.4898 21.1339 39.261 20.8317 40.0652 20.8317C40.8693 20.8317 41.6405 21.1339 42.2091 21.672C42.7777 22.21 43.0971 22.9397 43.0971 23.7006C43.0971 25.2224 43.736 26.6819 44.8732 27.758C46.0104 28.834 47.5528 29.4386 49.161 29.4386C50.7693 29.4386 52.3117 28.834 53.4489 27.758C54.5861 26.6819 55.225 25.2224 55.225 23.7006C55.225 22.9397 55.5444 22.21 56.113 21.672C56.6816 21.1339 57.4528 20.8317 58.2569 20.8317C59.0611 20.8317 59.8322 21.1339 60.4009 21.672C60.9695 22.21 61.2889 22.9397 61.2889 23.7006C61.2889 26.7442 60.0111 29.6632 57.7367 31.8153C55.4623 33.9675 52.3776 35.1765 49.161 35.1765Z" fill="#CBE4DE"/>
<path d="M58.2587 49.5214H49.1628C48.3587 49.5214 47.5875 49.2191 47.0189 48.6811C46.4503 48.1431 46.1309 47.4133 46.1309 46.6524C46.1309 45.8915 46.4503 45.1618 47.0189 44.6237C47.5875 44.0857 48.3587 43.7834 49.1628 43.7834H58.2587C59.0628 43.7834 59.834 44.0857 60.4026 44.6237C60.9712 45.1618 61.2907 45.8915 61.2907 46.6524C61.2907 47.4133 60.9712 48.1431 60.4026 48.6811C59.834 49.2191 59.0628 49.5214 58.2587 49.5214Z" fill="#CBE4DE"/>
</svg>
