<svg width="60" height="60" viewBox="0 0 60 60" fill="none" xmlns="http://www.w3.org/2000/svg">
<rect width="60" height="60" rx="30" fill="#1DA1F2"/>
<g clip-path="url(#clip0_558_155)">
<path fill-rule="evenodd" clip-rule="evenodd" d="M45.0002 19.4595C43.8979 19.9615 42.711 20.3009 41.466 20.4525C42.7373 19.6725 43.713 18.4355 44.1726 16.9622C42.9822 17.6845 41.6669 18.21 40.2616 18.4917C39.1417 17.2657 37.5409 16.5 35.7695 16.5C32.3727 16.5 29.617 19.3259 29.617 22.811C29.617 23.3058 29.6697 23.786 29.7754 24.2484C24.6604 23.9845 20.1262 21.4746 17.0884 17.652C16.5585 18.5873 16.2555 19.6725 16.2555 20.8282C16.2555 23.0168 17.342 24.9488 18.9937 26.081C17.9866 26.0503 17.0355 25.7632 16.2044 25.2937V25.3713C16.2044 28.4302 18.3262 30.9816 21.1436 31.5595C20.6277 31.7077 20.0835 31.7817 19.5217 31.7817C19.1256 31.7817 18.7382 31.7437 18.363 31.6697C19.1465 34.1761 21.4181 36.0016 24.1122 36.0504C22.0061 37.7442 19.3509 38.7534 16.4683 38.7534C15.9716 38.7534 15.4804 38.7246 14.9997 38.6667C17.7238 40.4543 20.9603 41.4998 24.4345 41.4998C35.7569 41.4998 41.9463 31.8844 41.9463 23.5439C41.9463 23.2695 41.9409 22.995 41.9303 22.7259C43.1336 21.8358 44.1777 20.7253 45.0002 19.4595Z" fill="white"/>
</g>
<defs>
<clipPath id="clip0_558_155">
<rect width="30" height="30" fill="white" transform="translate(15 14)"/>
</clipPath>
</defs>
</svg>
