<svg width="34" height="34" viewBox="0 0 34 34" fill="none" xmlns="http://www.w3.org/2000/svg">
<path d="M28.6663 13.6663C28.2243 13.6663 27.8004 13.8419 27.4878 14.1545C27.1753 14.4671 26.9997 14.891 26.9997 15.333V20.9663L24.533 18.4997C23.662 17.6356 22.4849 17.1507 21.258 17.1507C20.0311 17.1507 18.854 17.6356 17.983 18.4997L16.8163 19.683L12.683 15.533C11.812 14.6689 10.6349 14.184 9.40801 14.184C8.18113 14.184 7.00397 14.6689 6.13301 15.533L3.66634 18.0163V8.66634C3.66634 8.22431 3.84194 7.80039 4.1545 7.48783C4.46706 7.17527 4.89098 6.99967 5.33301 6.99967H18.6663C19.1084 6.99967 19.5323 6.82408 19.8449 6.51152C20.1574 6.19896 20.333 5.77504 20.333 5.33301C20.333 4.89098 20.1574 4.46706 19.8449 4.1545C19.5323 3.84194 19.1084 3.66634 18.6663 3.66634H5.33301C4.00693 3.66634 2.73516 4.19313 1.79747 5.13081C0.859792 6.06849 0.333008 7.34026 0.333008 8.66634V29.033C0.3374 30.2605 0.826963 31.4364 1.69493 32.3044C2.5629 33.1724 3.73886 33.6619 4.96634 33.6663H25.6997C26.1513 33.6627 26.6002 33.5954 27.033 33.4663C27.9954 33.1964 28.8427 32.6182 29.4448 31.8204C30.0469 31.0225 30.3706 30.0492 30.3663 29.0497V15.333C30.3664 15.1113 30.3222 14.8918 30.2364 14.6874C30.1505 14.483 30.0248 14.2978 29.8665 14.1426C29.7081 13.9873 29.5205 13.8653 29.3144 13.7835C29.1083 13.7017 28.888 13.6619 28.6663 13.6663ZM5.33301 30.333C4.89098 30.333 4.46706 30.1574 4.1545 29.8449C3.84194 29.5323 3.66634 29.1084 3.66634 28.6663V22.7163L8.48301 17.8997C8.72659 17.6574 9.05615 17.5215 9.39967 17.5215C9.7432 17.5215 10.0728 17.6574 10.3163 17.8997L22.7663 30.333H5.33301ZM26.9997 28.6663C26.989 28.9891 26.8847 29.3017 26.6997 29.5663L19.1663 21.9997L20.3497 20.833C20.4692 20.7111 20.6118 20.6142 20.7692 20.548C20.9266 20.4819 21.0956 20.4478 21.2663 20.4478C21.4371 20.4478 21.6061 20.4819 21.7635 20.548C21.9209 20.6142 22.0635 20.7111 22.183 20.833L26.9997 25.683V28.6663ZM31.9997 3.66634H30.333V1.99967C30.333 1.55765 30.1574 1.13372 29.8449 0.821163C29.5323 0.508602 29.1084 0.333008 28.6663 0.333008C28.2243 0.333008 27.8004 0.508602 27.4878 0.821163C27.1753 1.13372 26.9997 1.55765 26.9997 1.99967V3.66634H25.333C24.891 3.66634 24.4671 3.84194 24.1545 4.1545C23.8419 4.46706 23.6663 4.89098 23.6663 5.33301C23.6663 5.77504 23.8419 6.19896 24.1545 6.51152C24.4671 6.82408 24.891 6.99967 25.333 6.99967H26.9997V8.66634C26.9997 9.10837 27.1753 9.53229 27.4878 9.84485C27.8004 10.1574 28.2243 10.333 28.6663 10.333C29.1084 10.333 29.5323 10.1574 29.8449 9.84485C30.1574 9.53229 30.333 9.10837 30.333 8.66634V6.99967H31.9997C32.4417 6.99967 32.8656 6.82408 33.1782 6.51152C33.4907 6.19896 33.6663 5.77504 33.6663 5.33301C33.6663 4.89098 33.4907 4.46706 33.1782 4.1545C32.8656 3.84194 32.4417 3.66634 31.9997 3.66634Z" fill="#2C3333"/>
</svg>
