<svg width="1081" height="150" viewBox="0 0 1081 150" fill="none" xmlns="http://www.w3.org/2000/svg">
<rect x="0.5" y="0.245972" width="1080" height="149.096" rx="7.56833" fill="#0E8388"/>
<path d="M117.596 34.9219L94.4927 27.7062C90.8261 26.5611 87.0036 25.9783 83.1583 25.9783C79.313 25.9783 75.4906 26.5611 71.824 27.7062L48.7208 34.9219C43.8932 36.4297 40.6113 40.8587 40.6113 45.8657V85.5342C40.6113 92.8273 44.1157 99.6864 50.0521 104.013L72.6856 120.507C75.7198 122.718 79.3896 123.911 83.1583 123.911C86.927 123.911 90.5969 122.718 93.6311 120.507L116.265 104.013C122.201 99.6864 125.705 92.8273 125.705 85.5342V45.8657C125.705 40.8587 122.423 36.4297 117.596 34.9219ZM100.936 69.5346L81.7908 88.4699C79.525 90.7108 75.8515 90.7108 73.5858 88.4699L65.3806 80.3548C63.1148 78.1139 63.1148 74.4806 65.3806 72.2398C67.6465 69.9988 71.32 69.9988 73.5856 72.2398L77.6881 76.2973L92.7308 61.4196C94.9966 59.1786 98.6702 59.1786 100.936 61.4196C103.202 63.6604 103.202 67.2936 100.936 69.5346Z" fill="#00A307" stroke="#2E4F4F" stroke-width="4.541"/>
<path d="M192.109 79.7455H185.797L184.753 82.7653H181.415L187.114 66.8945H190.815L196.514 82.7653H193.154L192.109 79.7455ZM191.247 77.2025L188.953 70.5727L186.66 77.2025H191.247ZM201.823 65.9636V82.7653H198.644V65.9636H201.823ZM208.142 65.9636V82.7653H204.964V65.9636H208.142ZM222.278 82.9696C221.068 82.9696 219.978 82.7047 219.009 82.1749C218.04 81.63 217.276 80.8656 216.716 79.8817C216.171 78.8978 215.898 77.7626 215.898 76.476C215.898 75.1894 216.178 74.0541 216.738 73.0702C217.314 72.0864 218.093 71.3295 219.077 70.7997C220.061 70.2548 221.158 69.9824 222.369 69.9824C223.58 69.9824 224.678 70.2548 225.661 70.7997C226.645 71.3295 227.417 72.0864 227.977 73.0702C228.553 74.0541 228.84 75.1894 228.84 76.476C228.84 77.7626 228.545 78.8978 227.955 79.8817C227.379 80.8656 226.592 81.63 225.593 82.1749C224.609 82.7047 223.505 82.9696 222.278 82.9696ZM222.278 80.1996C222.854 80.1996 223.391 80.0634 223.89 79.7909C224.405 79.5033 224.814 79.0795 225.117 78.5194C225.419 77.9594 225.571 77.2782 225.571 76.476C225.571 75.2802 225.253 74.3644 224.617 73.7287C223.996 73.0778 223.232 72.7524 222.324 72.7524C221.416 72.7524 220.651 73.0778 220.031 73.7287C219.425 74.3644 219.122 75.2802 219.122 76.476C219.122 77.6718 219.418 78.5951 220.008 79.246C220.613 79.8817 221.37 80.1996 222.278 80.1996ZM234.351 72.0031C234.759 71.4279 235.319 70.9511 236.031 70.5727C236.757 70.1791 237.582 69.9824 238.506 69.9824C239.58 69.9824 240.549 70.2472 241.412 70.777C242.29 71.3068 242.978 72.0636 243.478 73.0475C243.993 74.0163 244.25 75.144 244.25 76.4306C244.25 77.7172 243.993 78.86 243.478 79.859C242.978 80.8429 242.29 81.6073 241.412 82.1522C240.549 82.6971 239.58 82.9696 238.506 82.9696C237.582 82.9696 236.765 82.7804 236.053 82.402C235.357 82.0236 234.79 81.5468 234.351 80.9716V88.7594H231.172V70.1867H234.351V72.0031ZM241.003 76.4306C241.003 75.6737 240.844 75.0229 240.526 74.4779C240.224 73.9179 239.815 73.4941 239.3 73.2065C238.801 72.9189 238.256 72.7751 237.666 72.7751C237.09 72.7751 236.545 72.9264 236.031 73.2292C235.531 73.5168 235.123 73.9406 234.805 74.5006C234.502 75.0607 234.351 75.7191 234.351 76.476C234.351 77.2328 234.502 77.8913 234.805 78.4513C235.123 79.0114 235.531 79.4428 236.031 79.7455C236.545 80.0331 237.09 80.1769 237.666 80.1769C238.256 80.1769 238.801 80.0255 239.3 79.7228C239.815 79.4201 240.224 78.9887 240.526 78.4286C240.844 77.8686 241.003 77.2025 241.003 76.4306ZM258.253 76.2035C258.253 76.6576 258.223 77.0663 258.162 77.4296H248.967C249.042 78.3378 249.36 79.0492 249.92 79.5639C250.48 80.0785 251.169 80.3358 251.986 80.3358C253.167 80.3358 254.007 79.8287 254.507 78.8146H257.935C257.572 80.0255 256.875 81.0245 255.846 81.8116C254.817 82.5836 253.553 82.9696 252.054 82.9696C250.843 82.9696 249.754 82.7047 248.785 82.1749C247.831 81.63 247.082 80.8656 246.537 79.8817C246.007 78.8978 245.742 77.7626 245.742 76.476C245.742 75.1742 246.007 74.0314 246.537 73.0475C247.067 72.0636 247.809 71.3068 248.762 70.777C249.716 70.2472 250.813 69.9824 252.054 69.9824C253.25 69.9824 254.317 70.2397 255.256 70.7543C256.209 71.269 256.944 72.0031 257.458 72.9567C257.988 73.8952 258.253 74.9775 258.253 76.2035ZM254.961 75.2953C254.946 74.4779 254.65 73.8271 254.075 73.3427C253.5 72.8432 252.796 72.5934 251.964 72.5934C251.177 72.5934 250.51 72.8356 249.966 73.32C249.436 73.7892 249.11 74.4477 248.989 75.2953H254.961ZM263.752 72.1393C264.16 71.4733 264.69 70.9511 265.341 70.5727C266.007 70.1943 266.764 70.0051 267.612 70.0051V73.3427H266.772C265.772 73.3427 265.016 73.5773 264.501 74.0465C264.002 74.5158 263.752 75.3332 263.752 76.4987V82.7653H260.573V70.1867H263.752V72.1393ZM268.935 76.4306C268.935 75.1591 269.185 74.0314 269.684 73.0475C270.199 72.0636 270.888 71.3068 271.751 70.777C272.629 70.2472 273.605 69.9824 274.68 69.9824C275.618 69.9824 276.435 70.1716 277.132 70.55C277.843 70.9284 278.411 71.4052 278.835 71.9804V70.1867H282.036V82.7653H278.835V80.9262C278.426 81.5165 277.858 82.0084 277.132 82.402C276.42 82.7804 275.595 82.9696 274.657 82.9696C273.597 82.9696 272.629 82.6971 271.751 82.1522C270.888 81.6073 270.199 80.8429 269.684 79.859C269.185 78.86 268.935 77.7172 268.935 76.4306ZM278.835 76.476C278.835 75.704 278.683 75.0456 278.38 74.5006C278.078 73.9406 277.669 73.5168 277.154 73.2292C276.64 72.9264 276.087 72.7751 275.497 72.7751C274.907 72.7751 274.362 72.9189 273.862 73.2065C273.363 73.4941 272.954 73.9179 272.636 74.4779C272.333 75.0229 272.182 75.6737 272.182 76.4306C272.182 77.1874 272.333 77.8534 272.636 78.4286C272.954 78.9887 273.363 79.4201 273.862 79.7228C274.377 80.0255 274.922 80.1769 275.497 80.1769C276.087 80.1769 276.64 80.0331 277.154 79.7455C277.669 79.4428 278.078 79.0189 278.38 78.474C278.683 77.914 278.835 77.2479 278.835 76.476ZM288.841 72.7978V78.8827C288.841 79.3065 288.94 79.6168 289.137 79.8136C289.349 79.9953 289.697 80.0861 290.181 80.0861H291.657V82.7653H289.659C286.98 82.7653 285.64 81.4635 285.64 78.86V72.7978H284.142V70.1867H285.64V67.0761H288.841V70.1867H291.657V72.7978H288.841ZM295.555 68.6882C294.995 68.6882 294.526 68.5141 294.148 68.166C293.784 67.8027 293.603 67.3561 293.603 66.8264C293.603 66.2966 293.784 65.8576 294.148 65.5095C294.526 65.1462 294.995 64.9646 295.555 64.9646C296.115 64.9646 296.577 65.1462 296.94 65.5095C297.319 65.8576 297.508 66.2966 297.508 66.8264C297.508 67.3561 297.319 67.8027 296.94 68.166C296.577 68.5141 296.115 68.6882 295.555 68.6882ZM297.122 70.1867V82.7653H293.943V70.1867H297.122ZM305.848 82.9696C304.637 82.9696 303.547 82.7047 302.578 82.1749C301.61 81.63 300.845 80.8656 300.285 79.8817C299.74 78.8978 299.468 77.7626 299.468 76.476C299.468 75.1894 299.748 74.0541 300.308 73.0702C300.883 72.0864 301.663 71.3295 302.646 70.7997C303.63 70.2548 304.728 69.9824 305.939 69.9824C307.15 69.9824 308.247 70.2548 309.231 70.7997C310.215 71.3295 310.987 72.0864 311.547 73.0702C312.122 74.0541 312.41 75.1894 312.41 76.476C312.41 77.7626 312.114 78.8978 311.524 79.8817C310.949 80.8656 310.162 81.63 309.163 82.1749C308.179 82.7047 307.074 82.9696 305.848 82.9696ZM305.848 80.1996C306.423 80.1996 306.96 80.0634 307.46 79.7909C307.975 79.5033 308.383 79.0795 308.686 78.5194C308.989 77.9594 309.14 77.2782 309.14 76.476C309.14 75.2802 308.822 74.3644 308.186 73.7287C307.566 73.0778 306.801 72.7524 305.893 72.7524C304.985 72.7524 304.221 73.0778 303.6 73.7287C302.995 74.3644 302.692 75.2802 302.692 76.476C302.692 77.6718 302.987 78.5951 303.577 79.246C304.183 79.8817 304.94 80.1996 305.848 80.1996ZM321.712 70.0051C323.21 70.0051 324.421 70.4819 325.344 71.4355C326.268 72.3739 326.729 73.6908 326.729 75.3861V82.7653H323.551V75.8175C323.551 74.8185 323.301 74.0541 322.802 73.5243C322.302 72.9794 321.621 72.707 320.758 72.707C319.88 72.707 319.184 72.9794 318.669 73.5243C318.17 74.0541 317.92 74.8185 317.92 75.8175V82.7653H314.741V70.1867H317.92V71.7533C318.344 71.2084 318.881 70.7846 319.532 70.4819C320.198 70.164 320.925 70.0051 321.712 70.0051ZM334.566 82.9696C333.536 82.9696 332.613 82.788 331.796 82.4247C330.978 82.0463 330.327 81.5392 329.843 80.9035C329.374 80.2677 329.117 79.5639 329.071 78.7919H332.273C332.333 79.2763 332.568 79.6774 332.976 79.9953C333.4 80.3131 333.922 80.4721 334.543 80.4721C335.148 80.4721 335.618 80.351 335.951 80.1088C336.299 79.8666 336.473 79.5563 336.473 79.1779C336.473 78.7692 336.261 78.4664 335.837 78.2697C335.429 78.0578 334.77 77.8307 333.862 77.5885C332.923 77.3615 332.151 77.1269 331.546 76.8847C330.956 76.6425 330.441 76.2716 330.002 75.7721C329.578 75.2726 329.366 74.599 329.366 73.7514C329.366 73.0551 329.563 72.4194 329.957 71.8442C330.365 71.269 330.941 70.8149 331.682 70.4819C332.439 70.1489 333.325 69.9824 334.339 69.9824C335.837 69.9824 337.033 70.3608 337.926 71.1176C338.819 71.8593 339.311 72.8659 339.402 74.1374H336.359C336.314 73.6379 336.102 73.2443 335.724 72.9567C335.36 72.654 334.868 72.5026 334.248 72.5026C333.673 72.5026 333.226 72.6086 332.908 72.8205C332.606 73.0324 332.454 73.3276 332.454 73.706C332.454 74.1298 332.666 74.4552 333.09 74.6823C333.514 74.8942 334.172 75.1137 335.065 75.3407C335.973 75.5678 336.723 75.8024 337.313 76.0446C337.903 76.2868 338.41 76.6652 338.834 77.1798C339.273 77.6793 339.5 78.3454 339.515 79.1779C339.515 79.9044 339.311 80.5553 338.902 81.1305C338.509 81.7057 337.934 82.1598 337.177 82.4928C336.435 82.8107 335.565 82.9696 334.566 82.9696ZM346.718 76.4306C346.718 75.1591 346.967 74.0314 347.467 73.0475C347.981 72.0636 348.67 71.3068 349.533 70.777C350.411 70.2472 351.387 69.9824 352.462 69.9824C353.4 69.9824 354.218 70.1716 354.914 70.55C355.625 70.9284 356.193 71.4052 356.617 71.9804V70.1867H359.818V82.7653H356.617V80.9262C356.208 81.5165 355.641 82.0084 354.914 82.402C354.203 82.7804 353.378 82.9696 352.439 82.9696C351.38 82.9696 350.411 82.6971 349.533 82.1522C348.67 81.6073 347.981 80.8429 347.467 79.859C346.967 78.86 346.718 77.7172 346.718 76.4306ZM356.617 76.476C356.617 75.704 356.466 75.0456 356.163 74.5006C355.86 73.9406 355.451 73.5168 354.937 73.2292C354.422 72.9264 353.87 72.7751 353.279 72.7751C352.689 72.7751 352.144 72.9189 351.644 73.2065C351.145 73.4941 350.736 73.9179 350.418 74.4779C350.116 75.0229 349.964 75.6737 349.964 76.4306C349.964 77.1874 350.116 77.8534 350.418 78.4286C350.736 78.9887 351.145 79.4201 351.644 79.7228C352.159 80.0255 352.704 80.1769 353.279 80.1769C353.87 80.1769 354.422 80.0331 354.937 79.7455C355.451 79.4428 355.86 79.0189 356.163 78.474C356.466 77.914 356.617 77.2479 356.617 76.476ZM366.102 72.1393C366.51 71.4733 367.04 70.9511 367.691 70.5727C368.357 70.1943 369.114 70.0051 369.961 70.0051V73.3427H369.121C368.122 73.3427 367.365 73.5773 366.851 74.0465C366.351 74.5158 366.102 75.3332 366.102 76.4987V82.7653H362.923V70.1867H366.102V72.1393ZM383.795 76.2035C383.795 76.6576 383.765 77.0663 383.705 77.4296H374.509C374.585 78.3378 374.903 79.0492 375.463 79.5639C376.023 80.0785 376.711 80.3358 377.529 80.3358C378.71 80.3358 379.55 79.8287 380.049 78.8146H383.478C383.114 80.0255 382.418 81.0245 381.389 81.8116C380.359 82.5836 379.096 82.9696 377.597 82.9696C376.386 82.9696 375.296 82.7047 374.327 82.1749C373.374 81.63 372.625 80.8656 372.08 79.8817C371.55 78.8978 371.285 77.7626 371.285 76.476C371.285 75.1742 371.55 74.0314 372.08 73.0475C372.609 72.0636 373.351 71.3068 374.305 70.777C375.258 70.2472 376.356 69.9824 377.597 69.9824C378.793 69.9824 379.86 70.2397 380.798 70.7543C381.752 71.269 382.486 72.0031 383.001 72.9567C383.531 73.8952 383.795 74.9775 383.795 76.2035ZM380.503 75.2953C380.488 74.4779 380.193 73.8271 379.618 73.3427C379.043 72.8432 378.339 72.5934 377.506 72.5934C376.719 72.5934 376.053 72.8356 375.508 73.32C374.978 73.7892 374.653 74.4477 374.532 75.2953H380.503ZM401.312 66.9172V69.4828H394.704V73.547H399.768V76.0673H394.704V82.7653H391.526V66.9172H401.312ZM406.744 72.1393C407.153 71.4733 407.683 70.9511 408.334 70.5727C409 70.1943 409.757 70.0051 410.604 70.0051V73.3427H409.764C408.765 73.3427 408.008 73.5773 407.494 74.0465C406.994 74.5158 406.744 75.3332 406.744 76.4987V82.7653H403.566V70.1867H406.744V72.1393ZM424.438 76.2035C424.438 76.6576 424.408 77.0663 424.347 77.4296H415.152C415.228 78.3378 415.545 79.0492 416.106 79.5639C416.666 80.0785 417.354 80.3358 418.172 80.3358C419.352 80.3358 420.192 79.8287 420.692 78.8146H424.12C423.757 80.0255 423.061 81.0245 422.032 81.8116C421.002 82.5836 419.738 82.9696 418.24 82.9696C417.029 82.9696 415.939 82.7047 414.97 82.1749C414.017 81.63 413.267 80.8656 412.722 79.8817C412.193 78.8978 411.928 77.7626 411.928 76.476C411.928 75.1742 412.193 74.0314 412.722 73.0475C413.252 72.0636 413.994 71.3068 414.948 70.777C415.901 70.2472 416.999 69.9824 418.24 69.9824C419.436 69.9824 420.503 70.2397 421.441 70.7543C422.395 71.269 423.129 72.0031 423.644 72.9567C424.173 73.8952 424.438 74.9775 424.438 76.2035ZM421.146 75.2953C421.131 74.4779 420.836 73.8271 420.261 73.3427C419.685 72.8432 418.981 72.5934 418.149 72.5934C417.362 72.5934 416.696 72.8356 416.151 73.32C415.621 73.7892 415.296 74.4477 415.175 75.2953H421.146ZM438.451 76.2035C438.451 76.6576 438.421 77.0663 438.361 77.4296H429.165C429.241 78.3378 429.559 79.0492 430.119 79.5639C430.679 80.0785 431.368 80.3358 432.185 80.3358C433.366 80.3358 434.206 79.8287 434.705 78.8146H438.134C437.77 80.0255 437.074 81.0245 436.045 81.8116C435.015 82.5836 433.752 82.9696 432.253 82.9696C431.042 82.9696 429.952 82.7047 428.983 82.1749C428.03 81.63 427.281 80.8656 426.736 79.8817C426.206 78.8978 425.941 77.7626 425.941 76.476C425.941 75.1742 426.206 74.0314 426.736 73.0475C427.265 72.0636 428.007 71.3068 428.961 70.777C429.914 70.2472 431.012 69.9824 432.253 69.9824C433.449 69.9824 434.516 70.2397 435.454 70.7543C436.408 71.269 437.142 72.0031 437.657 72.9567C438.187 73.8952 438.451 74.9775 438.451 76.2035ZM435.159 75.2953C435.144 74.4779 434.849 73.8271 434.274 73.3427C433.699 72.8432 432.995 72.5934 432.162 72.5934C431.375 72.5934 430.709 72.8356 430.164 73.32C429.634 73.7892 429.309 74.4477 429.188 75.2953H435.159ZM444.766 76.4306C444.766 75.1591 445.015 74.0314 445.515 73.0475C446.03 72.0636 446.718 71.3068 447.581 70.777C448.459 70.2472 449.435 69.9824 450.51 69.9824C451.449 69.9824 452.266 70.1716 452.962 70.55C453.674 70.9284 454.241 71.4052 454.665 71.9804V70.1867H457.867V82.7653H454.665V80.9262C454.256 81.5165 453.689 82.0084 452.962 82.402C452.251 82.7804 451.426 82.9696 450.487 82.9696C449.428 82.9696 448.459 82.6971 447.581 82.1522C446.718 81.6073 446.03 80.8429 445.515 79.859C445.015 78.86 444.766 77.7172 444.766 76.4306ZM454.665 76.476C454.665 75.704 454.514 75.0456 454.211 74.5006C453.908 73.9406 453.5 73.5168 452.985 73.2292C452.47 72.9264 451.918 72.7751 451.327 72.7751C450.737 72.7751 450.192 72.9189 449.693 73.2065C449.193 73.4941 448.785 73.9179 448.467 74.4779C448.164 75.0229 448.013 75.6737 448.013 76.4306C448.013 77.1874 448.164 77.8534 448.467 78.4286C448.785 78.9887 449.193 79.4201 449.693 79.7228C450.207 80.0255 450.752 80.1769 451.327 80.1769C451.918 80.1769 452.47 80.0331 452.985 79.7455C453.5 79.4428 453.908 79.0189 454.211 78.474C454.514 77.914 454.665 77.2479 454.665 76.476ZM467.942 70.0051C469.44 70.0051 470.651 70.4819 471.574 71.4355C472.498 72.3739 472.959 73.6908 472.959 75.3861V82.7653H469.781V75.8175C469.781 74.8185 469.531 74.0541 469.031 73.5243C468.532 72.9794 467.851 72.707 466.988 72.707C466.11 72.707 465.414 72.9794 464.899 73.5243C464.4 74.0541 464.15 74.8185 464.15 75.8175V82.7653H460.971V70.1867H464.15V71.7533C464.574 71.2084 465.111 70.7846 465.762 70.4819C466.428 70.164 467.154 70.0051 467.942 70.0051ZM475.165 76.4306C475.165 75.1591 475.414 74.0314 475.914 73.0475C476.429 72.0636 477.125 71.3068 478.003 70.777C478.881 70.2472 479.857 69.9824 480.932 69.9824C481.749 69.9824 482.529 70.164 483.27 70.5273C484.012 70.8754 484.602 71.3447 485.041 71.935V65.9636H488.265V82.7653H485.041V80.9035C484.648 81.5241 484.095 82.0236 483.384 82.402C482.672 82.7804 481.848 82.9696 480.909 82.9696C479.849 82.9696 478.881 82.6971 478.003 82.1522C477.125 81.6073 476.429 80.8429 475.914 79.859C475.414 78.86 475.165 77.7172 475.165 76.4306ZM485.064 76.476C485.064 75.704 484.913 75.0456 484.61 74.5006C484.307 73.9406 483.899 73.5168 483.384 73.2292C482.869 72.9264 482.317 72.7751 481.726 72.7751C481.136 72.7751 480.591 72.9189 480.092 73.2065C479.592 73.4941 479.183 73.9179 478.866 74.4779C478.563 75.0229 478.412 75.6737 478.412 76.4306C478.412 77.1874 478.563 77.8534 478.866 78.4286C479.183 78.9887 479.592 79.4201 480.092 79.7228C480.606 80.0255 481.151 80.1769 481.726 80.1769C482.317 80.1769 482.869 80.0331 483.384 79.7455C483.899 79.4428 484.307 79.0189 484.61 78.474C484.913 77.914 485.064 77.2479 485.064 76.476ZM495.963 76.4306C495.963 75.1591 496.213 74.0314 496.712 73.0475C497.227 72.0636 497.923 71.3068 498.801 70.777C499.679 70.2472 500.655 69.9824 501.73 69.9824C502.547 69.9824 503.327 70.164 504.069 70.5273C504.81 70.8754 505.401 71.3447 505.839 71.935V65.9636H509.064V82.7653H505.839V80.9035C505.446 81.5241 504.893 82.0236 504.182 82.402C503.471 82.7804 502.646 82.9696 501.707 82.9696C500.648 82.9696 499.679 82.6971 498.801 82.1522C497.923 81.6073 497.227 80.8429 496.712 79.859C496.213 78.86 495.963 77.7172 495.963 76.4306ZM505.862 76.476C505.862 75.704 505.711 75.0456 505.408 74.5006C505.105 73.9406 504.697 73.5168 504.182 73.2292C503.667 72.9264 503.115 72.7751 502.525 72.7751C501.934 72.7751 501.389 72.9189 500.89 73.2065C500.39 73.4941 499.982 73.9179 499.664 74.4779C499.361 75.0229 499.21 75.6737 499.21 76.4306C499.21 77.1874 499.361 77.8534 499.664 78.4286C499.982 78.9887 500.39 79.4201 500.89 79.7228C501.404 80.0255 501.949 80.1769 502.525 80.1769C503.115 80.1769 503.667 80.0331 504.182 79.7455C504.697 79.4428 505.105 79.0189 505.408 78.474C505.711 77.914 505.862 77.2479 505.862 76.476ZM517.754 82.9696C516.543 82.9696 515.453 82.7047 514.484 82.1749C513.515 81.63 512.751 80.8656 512.191 79.8817C511.646 78.8978 511.373 77.7626 511.373 76.476C511.373 75.1894 511.653 74.0541 512.214 73.0702C512.789 72.0864 513.568 71.3295 514.552 70.7997C515.536 70.2548 516.633 69.9824 517.844 69.9824C519.055 69.9824 520.153 70.2548 521.137 70.7997C522.12 71.3295 522.892 72.0864 523.453 73.0702C524.028 74.0541 524.315 75.1894 524.315 76.476C524.315 77.7626 524.02 78.8978 523.43 79.8817C522.855 80.8656 522.068 81.63 521.068 82.1749C520.085 82.7047 518.98 82.9696 517.754 82.9696ZM517.754 80.1996C518.329 80.1996 518.866 80.0634 519.366 79.7909C519.88 79.5033 520.289 79.0795 520.592 78.5194C520.894 77.9594 521.046 77.2782 521.046 76.476C521.046 75.2802 520.728 74.3644 520.092 73.7287C519.472 73.0778 518.707 72.7524 517.799 72.7524C516.891 72.7524 516.126 73.0778 515.506 73.7287C514.9 74.3644 514.598 75.2802 514.598 76.476C514.598 77.6718 514.893 78.5951 515.483 79.246C516.089 79.8817 516.845 80.1996 517.754 80.1996ZM533.617 70.0051C535.116 70.0051 536.327 70.4819 537.25 71.4355C538.174 72.3739 538.635 73.6908 538.635 75.3861V82.7653H535.457V75.8175C535.457 74.8185 535.207 74.0541 534.707 73.5243C534.208 72.9794 533.527 72.707 532.664 72.707C531.786 72.707 531.09 72.9794 530.575 73.5243C530.075 74.0541 529.826 74.8185 529.826 75.8175V82.7653H526.647V70.1867H529.826V71.7533C530.25 71.2084 530.787 70.7846 531.438 70.4819C532.104 70.164 532.83 70.0051 533.617 70.0051ZM553.351 76.2035C553.351 76.6576 553.321 77.0663 553.26 77.4296H544.065C544.14 78.3378 544.458 79.0492 545.018 79.5639C545.578 80.0785 546.267 80.3358 547.085 80.3358C548.265 80.3358 549.105 79.8287 549.605 78.8146H553.033C552.67 80.0255 551.974 81.0245 550.944 81.8116C549.915 82.5836 548.651 82.9696 547.153 82.9696C545.942 82.9696 544.852 82.7047 543.883 82.1749C542.929 81.63 542.18 80.8656 541.635 79.8817C541.106 78.8978 540.841 77.7626 540.841 76.476C540.841 75.1742 541.106 74.0314 541.635 73.0475C542.165 72.0636 542.907 71.3068 543.86 70.777C544.814 70.2472 545.911 69.9824 547.153 69.9824C548.348 69.9824 549.416 70.2397 550.354 70.7543C551.308 71.269 552.042 72.0031 552.556 72.9567C553.086 73.8952 553.351 74.9775 553.351 76.2035ZM550.059 75.2953C550.044 74.4779 549.749 73.8271 549.173 73.3427C548.598 72.8432 547.894 72.5934 547.062 72.5934C546.275 72.5934 545.609 72.8356 545.064 73.32C544.534 73.7892 544.209 74.4477 544.087 75.2953H550.059ZM572.956 70.1867V82.7653H569.755V81.1759C569.346 81.7208 568.809 82.1522 568.143 82.4701C567.492 82.7728 566.78 82.9242 566.008 82.9242C565.025 82.9242 564.154 82.7198 563.397 82.3112C562.64 81.8873 562.043 81.2743 561.604 80.4721C561.18 79.6547 560.968 78.6859 560.968 77.5658V70.1867H564.147V77.1117C564.147 78.1107 564.396 78.8827 564.896 79.4276C565.395 79.9574 566.077 80.2223 566.939 80.2223C567.817 80.2223 568.506 79.9574 569.005 79.4276C569.505 78.8827 569.755 78.1107 569.755 77.1117V70.1867H572.956ZM583.063 70.0051C584.561 70.0051 585.772 70.4819 586.696 71.4355C587.619 72.3739 588.081 73.6908 588.081 75.3861V82.7653H584.902V75.8175C584.902 74.8185 584.652 74.0541 584.153 73.5243C583.653 72.9794 582.972 72.707 582.109 72.707C581.231 72.707 580.535 72.9794 580.02 73.5243C579.521 74.0541 579.271 74.8185 579.271 75.8175V82.7653H576.092V70.1867H579.271V71.7533C579.695 71.2084 580.232 70.7846 580.883 70.4819C581.549 70.164 582.276 70.0051 583.063 70.0051ZM590.286 76.4306C590.286 75.1591 590.536 74.0314 591.035 73.0475C591.55 72.0636 592.246 71.3068 593.124 70.777C594.002 70.2472 594.978 69.9824 596.053 69.9824C596.87 69.9824 597.65 70.164 598.392 70.5273C599.133 70.8754 599.724 71.3447 600.163 71.935V65.9636H603.387V82.7653H600.163V80.9035C599.769 81.5241 599.217 82.0236 598.505 82.402C597.794 82.7804 596.969 82.9696 596.03 82.9696C594.971 82.9696 594.002 82.6971 593.124 82.1522C592.246 81.6073 591.55 80.8429 591.035 79.859C590.536 78.86 590.286 77.7172 590.286 76.4306ZM600.185 76.476C600.185 75.704 600.034 75.0456 599.731 74.5006C599.429 73.9406 599.02 73.5168 598.505 73.2292C597.991 72.9264 597.438 72.7751 596.848 72.7751C596.257 72.7751 595.713 72.9189 595.213 73.2065C594.714 73.4941 594.305 73.9179 593.987 74.4779C593.684 75.0229 593.533 75.6737 593.533 76.4306C593.533 77.1874 593.684 77.8534 593.987 78.4286C594.305 78.9887 594.714 79.4201 595.213 79.7228C595.728 80.0255 596.273 80.1769 596.848 80.1769C597.438 80.1769 597.991 80.0331 598.505 79.7455C599.02 79.4428 599.429 79.0189 599.731 78.474C600.034 77.914 600.185 77.2479 600.185 76.476ZM618.184 76.2035C618.184 76.6576 618.154 77.0663 618.094 77.4296H608.898C608.974 78.3378 609.292 79.0492 609.852 79.5639C610.412 80.0785 611.1 80.3358 611.918 80.3358C613.099 80.3358 613.939 79.8287 614.438 78.8146H617.867C617.503 80.0255 616.807 81.0245 615.778 81.8116C614.748 82.5836 613.484 82.9696 611.986 82.9696C610.775 82.9696 609.685 82.7047 608.716 82.1749C607.763 81.63 607.014 80.8656 606.469 79.8817C605.939 78.8978 605.674 77.7626 605.674 76.476C605.674 75.1742 605.939 74.0314 606.469 73.0475C606.998 72.0636 607.74 71.3068 608.694 70.777C609.647 70.2472 610.745 69.9824 611.986 69.9824C613.182 69.9824 614.249 70.2397 615.187 70.7543C616.141 71.269 616.875 72.0031 617.39 72.9567C617.92 73.8952 618.184 74.9775 618.184 76.2035ZM614.892 75.2953C614.877 74.4779 614.582 73.8271 614.007 73.3427C613.432 72.8432 612.728 72.5934 611.895 72.5934C611.108 72.5934 610.442 72.8356 609.897 73.32C609.367 73.7892 609.042 74.4477 608.921 75.2953H614.892ZM623.683 72.1393C624.092 71.4733 624.622 70.9511 625.273 70.5727C625.939 70.1943 626.695 70.0051 627.543 70.0051V73.3427H626.703C625.704 73.3427 624.947 73.5773 624.433 74.0465C623.933 74.5158 623.683 75.3332 623.683 76.4987V82.7653H620.505V70.1867H623.683V72.1393ZM638.795 72.7978V78.8827C638.795 79.3065 638.894 79.6168 639.09 79.8136C639.302 79.9953 639.65 80.0861 640.135 80.0861H641.611V82.7653H639.613C636.933 82.7653 635.594 81.4635 635.594 78.86V72.7978H634.095V70.1867H635.594V67.0761H638.795V70.1867H641.611V72.7978H638.795ZM650.981 70.0051C651.934 70.0051 652.782 70.217 653.524 70.6408C654.266 71.0495 654.841 71.6625 655.249 72.4799C655.673 73.2821 655.885 74.2509 655.885 75.3861V82.7653H652.706V75.8175C652.706 74.8185 652.457 74.0541 651.957 73.5243C651.458 72.9794 650.777 72.707 649.914 72.707C649.036 72.707 648.34 72.9794 647.825 73.5243C647.325 74.0541 647.076 74.8185 647.076 75.8175V82.7653H643.897V65.9636H647.076V71.7533C647.484 71.2084 648.029 70.7846 648.71 70.4819C649.392 70.164 650.148 70.0051 650.981 70.0051ZM670.601 76.2035C670.601 76.6576 670.571 77.0663 670.51 77.4296H661.315C661.39 78.3378 661.708 79.0492 662.268 79.5639C662.828 80.0785 663.517 80.3358 664.334 80.3358C665.515 80.3358 666.355 79.8287 666.855 78.8146H670.283C669.92 80.0255 669.224 81.0245 668.194 81.8116C667.165 82.5836 665.901 82.9696 664.403 82.9696C663.192 82.9696 662.102 82.7047 661.133 82.1749C660.179 81.63 659.43 80.8656 658.885 79.8817C658.355 78.8978 658.091 77.7626 658.091 76.476C658.091 75.1742 658.355 74.0314 658.885 73.0475C659.415 72.0636 660.157 71.3068 661.11 70.777C662.064 70.2472 663.161 69.9824 664.403 69.9824C665.598 69.9824 666.665 70.2397 667.604 70.7543C668.558 71.269 669.292 72.0031 669.806 72.9567C670.336 73.8952 670.601 74.9775 670.601 76.2035ZM667.309 75.2953C667.294 74.4779 666.998 73.8271 666.423 73.3427C665.848 72.8432 665.144 72.5934 664.312 72.5934C663.525 72.5934 662.859 72.8356 662.314 73.32C661.784 73.7892 661.458 74.4477 661.337 75.2953H667.309ZM683.145 82.9696C682.115 82.9696 681.192 82.788 680.375 82.4247C679.557 82.0463 678.907 81.5392 678.422 80.9035C677.953 80.2677 677.696 79.5639 677.65 78.7919H680.852C680.912 79.2763 681.147 79.6774 681.555 79.9953C681.979 80.3131 682.501 80.4721 683.122 80.4721C683.728 80.4721 684.197 80.351 684.53 80.1088C684.878 79.8666 685.052 79.5563 685.052 79.1779C685.052 78.7692 684.84 78.4664 684.416 78.2697C684.008 78.0578 683.349 77.8307 682.441 77.5885C681.502 77.3615 680.73 77.1269 680.125 76.8847C679.535 76.6425 679.02 76.2716 678.581 75.7721C678.157 75.2726 677.945 74.599 677.945 73.7514C677.945 73.0551 678.142 72.4194 678.536 71.8442C678.944 71.269 679.52 70.8149 680.261 70.4819C681.018 70.1489 681.904 69.9824 682.918 69.9824C684.416 69.9824 685.612 70.3608 686.505 71.1176C687.398 71.8593 687.89 72.8659 687.981 74.1374H684.938C684.893 73.6379 684.681 73.2443 684.303 72.9567C683.939 72.654 683.448 72.5026 682.827 72.5026C682.252 72.5026 681.805 72.6086 681.487 72.8205C681.185 73.0324 681.033 73.3276 681.033 73.706C681.033 74.1298 681.245 74.4552 681.669 74.6823C682.093 74.8942 682.751 75.1137 683.644 75.3407C684.552 75.5678 685.302 75.8024 685.892 76.0446C686.482 76.2868 686.989 76.6652 687.413 77.1798C687.852 77.6793 688.079 78.3454 688.094 79.1779C688.094 79.9044 687.89 80.5553 687.481 81.1305C687.088 81.7057 686.513 82.1598 685.756 82.4928C685.014 82.8107 684.144 82.9696 683.145 82.9696ZM702.578 70.1867V82.7653H699.377V81.1759C698.968 81.7208 698.431 82.1522 697.765 82.4701C697.114 82.7728 696.403 82.9242 695.631 82.9242C694.647 82.9242 693.776 82.7198 693.02 82.3112C692.263 81.8873 691.665 81.2743 691.226 80.4721C690.802 79.6547 690.59 78.6859 690.59 77.5658V70.1867H693.769V77.1117C693.769 78.1107 694.019 78.8827 694.518 79.4276C695.018 79.9574 695.699 80.2223 696.562 80.2223C697.44 80.2223 698.128 79.9574 698.628 79.4276C699.127 78.8827 699.377 78.1107 699.377 77.1117V70.1867H702.578ZM708.893 72.0031C709.302 71.4279 709.862 70.9511 710.574 70.5727C711.3 70.1791 712.125 69.9824 713.048 69.9824C714.123 69.9824 715.092 70.2472 715.955 70.777C716.833 71.3068 717.521 72.0636 718.021 73.0475C718.536 74.0163 718.793 75.144 718.793 76.4306C718.793 77.7172 718.536 78.86 718.021 79.859C717.521 80.8429 716.833 81.6073 715.955 82.1522C715.092 82.6971 714.123 82.9696 713.048 82.9696C712.125 82.9696 711.308 82.7804 710.596 82.402C709.9 82.0236 709.332 81.5468 708.893 80.9716V88.7594H705.715V70.1867H708.893V72.0031ZM715.546 76.4306C715.546 75.6737 715.387 75.0229 715.069 74.4779C714.766 73.9179 714.358 73.4941 713.843 73.2065C713.344 72.9189 712.799 72.7751 712.208 72.7751C711.633 72.7751 711.088 72.9264 710.574 73.2292C710.074 73.5168 709.665 73.9406 709.348 74.5006C709.045 75.0607 708.893 75.7191 708.893 76.476C708.893 77.2328 709.045 77.8913 709.348 78.4513C709.665 79.0114 710.074 79.4428 710.574 79.7455C711.088 80.0331 711.633 80.1769 712.208 80.1769C712.799 80.1769 713.344 80.0255 713.843 79.7228C714.358 79.4201 714.766 78.9887 715.069 78.4286C715.387 77.8686 715.546 77.2025 715.546 76.4306ZM732.796 76.2035C732.796 76.6576 732.766 77.0663 732.705 77.4296H723.509C723.585 78.3378 723.903 79.0492 724.463 79.5639C725.023 80.0785 725.712 80.3358 726.529 80.3358C727.71 80.3358 728.55 79.8287 729.049 78.8146H732.478C732.115 80.0255 731.418 81.0245 730.389 81.8116C729.36 82.5836 728.096 82.9696 726.597 82.9696C725.386 82.9696 724.297 82.7047 723.328 82.1749C722.374 81.63 721.625 80.8656 721.08 79.8817C720.55 78.8978 720.285 77.7626 720.285 76.476C720.285 75.1742 720.55 74.0314 721.08 73.0475C721.61 72.0636 722.351 71.3068 723.305 70.777C724.259 70.2472 725.356 69.9824 726.597 69.9824C727.793 69.9824 728.86 70.2397 729.799 70.7543C730.752 71.269 731.486 72.0031 732.001 72.9567C732.531 73.8952 732.796 74.9775 732.796 76.2035ZM729.504 75.2953C729.488 74.4779 729.193 73.8271 728.618 73.3427C728.043 72.8432 727.339 72.5934 726.506 72.5934C725.719 72.5934 725.053 72.8356 724.508 73.32C723.979 73.7892 723.653 74.4477 723.532 75.2953H729.504ZM738.295 72.1393C738.703 71.4733 739.233 70.9511 739.884 70.5727C740.55 70.1943 741.307 70.0051 742.155 70.0051V73.3427H741.314C740.315 73.3427 739.559 73.5773 739.044 74.0465C738.544 74.5158 738.295 75.3332 738.295 76.4987V82.7653H735.116V70.1867H738.295V72.1393ZM749.54 79.8363L752.719 70.1867H756.102L751.448 82.7653H747.588L742.956 70.1867H746.362L749.54 79.8363ZM759.499 68.6882C758.939 68.6882 758.47 68.5141 758.092 68.166C757.729 67.8027 757.547 67.3561 757.547 66.8264C757.547 66.2966 757.729 65.8576 758.092 65.5095C758.47 65.1462 758.939 64.9646 759.499 64.9646C760.06 64.9646 760.521 65.1462 760.885 65.5095C761.263 65.8576 761.452 66.2966 761.452 66.8264C761.452 67.3561 761.263 67.8027 760.885 68.166C760.521 68.5141 760.06 68.6882 759.499 68.6882ZM761.066 70.1867V82.7653H757.887V70.1867H761.066ZM769.02 82.9696C767.991 82.9696 767.068 82.788 766.25 82.4247C765.433 82.0463 764.782 81.5392 764.298 80.9035C763.828 80.2677 763.571 79.5639 763.526 78.7919H766.727C766.788 79.2763 767.022 79.6774 767.431 79.9953C767.855 80.3131 768.377 80.4721 768.997 80.4721C769.603 80.4721 770.072 80.351 770.405 80.1088C770.753 79.8666 770.927 79.5563 770.927 79.1779C770.927 78.7692 770.715 78.4664 770.292 78.2697C769.883 78.0578 769.225 77.8307 768.316 77.5885C767.378 77.3615 766.606 77.1269 766 76.8847C765.41 76.6425 764.895 76.2716 764.456 75.7721C764.033 75.2726 763.821 74.599 763.821 73.7514C763.821 73.0551 764.018 72.4194 764.411 71.8442C764.82 71.269 765.395 70.8149 766.137 70.4819C766.893 70.1489 767.779 69.9824 768.793 69.9824C770.292 69.9824 771.487 70.3608 772.381 71.1176C773.274 71.8593 773.766 72.8659 773.856 74.1374H770.814C770.768 73.6379 770.557 73.2443 770.178 72.9567C769.815 72.654 769.323 72.5026 768.702 72.5026C768.127 72.5026 767.681 72.6086 767.363 72.8205C767.06 73.0324 766.909 73.3276 766.909 73.706C766.909 74.1298 767.121 74.4552 767.544 74.6823C767.968 74.8942 768.627 75.1137 769.52 75.3407C770.428 75.5678 771.177 75.8024 771.767 76.0446C772.358 76.2868 772.865 76.6652 773.289 77.1798C773.728 77.6793 773.955 78.3454 773.97 79.1779C773.97 79.9044 773.766 80.5553 773.357 81.1305C772.963 81.7057 772.388 82.1598 771.631 82.4928C770.89 82.8107 770.019 82.9696 769.02 82.9696ZM778.191 68.6882C777.631 68.6882 777.162 68.5141 776.784 68.166C776.42 67.8027 776.239 67.3561 776.239 66.8264C776.239 66.2966 776.42 65.8576 776.784 65.5095C777.162 65.1462 777.631 64.9646 778.191 64.9646C778.751 64.9646 779.213 65.1462 779.576 65.5095C779.955 65.8576 780.144 66.2966 780.144 66.8264C780.144 67.3561 779.955 67.8027 779.576 68.166C779.213 68.5141 778.751 68.6882 778.191 68.6882ZM779.758 70.1867V82.7653H776.579V70.1867H779.758ZM788.484 82.9696C787.273 82.9696 786.183 82.7047 785.214 82.1749C784.246 81.63 783.481 80.8656 782.921 79.8817C782.376 78.8978 782.104 77.7626 782.104 76.476C782.104 75.1894 782.384 74.0541 782.944 73.0702C783.519 72.0864 784.299 71.3295 785.282 70.7997C786.266 70.2548 787.364 69.9824 788.575 69.9824C789.786 69.9824 790.883 70.2548 791.867 70.7997C792.851 71.3295 793.623 72.0864 794.183 73.0702C794.758 74.0541 795.046 75.1894 795.046 76.476C795.046 77.7626 794.75 78.8978 794.16 79.8817C793.585 80.8656 792.798 81.63 791.799 82.1749C790.815 82.7047 789.71 82.9696 788.484 82.9696ZM788.484 80.1996C789.059 80.1996 789.596 80.0634 790.096 79.7909C790.61 79.5033 791.019 79.0795 791.322 78.5194C791.625 77.9594 791.776 77.2782 791.776 76.476C791.776 75.2802 791.458 74.3644 790.822 73.7287C790.202 73.0778 789.437 72.7524 788.529 72.7524C787.621 72.7524 786.857 73.0778 786.236 73.7287C785.631 74.3644 785.328 75.2802 785.328 76.476C785.328 77.6718 785.623 78.5951 786.213 79.246C786.819 79.8817 787.576 80.1996 788.484 80.1996ZM804.348 70.0051C805.846 70.0051 807.057 70.4819 807.98 71.4355C808.904 72.3739 809.365 73.6908 809.365 75.3861V82.7653H806.187V75.8175C806.187 74.8185 805.937 74.0541 805.438 73.5243C804.938 72.9794 804.257 72.707 803.394 72.707C802.516 72.707 801.82 72.9794 801.305 73.5243C800.806 74.0541 800.556 74.8185 800.556 75.8175V82.7653H797.377V70.1867H800.556V71.7533C800.98 71.2084 801.517 70.7846 802.168 70.4819C802.834 70.164 803.561 70.0051 804.348 70.0051ZM823.384 82.9696C822.173 82.9696 821.083 82.7047 820.114 82.1749C819.146 81.63 818.381 80.8656 817.821 79.8817C817.276 78.8978 817.004 77.7626 817.004 76.476C817.004 75.1894 817.284 74.0541 817.844 73.0702C818.419 72.0864 819.199 71.3295 820.182 70.7997C821.166 70.2548 822.264 69.9824 823.475 69.9824C824.686 69.9824 825.783 70.2548 826.767 70.7997C827.751 71.3295 828.523 72.0864 829.083 73.0702C829.658 74.0541 829.946 75.1894 829.946 76.476C829.946 77.7626 829.65 78.8978 829.06 79.8817C828.485 80.8656 827.698 81.63 826.699 82.1749C825.715 82.7047 824.61 82.9696 823.384 82.9696ZM823.384 80.1996C823.959 80.1996 824.496 80.0634 824.996 79.7909C825.511 79.5033 825.919 79.0795 826.222 78.5194C826.525 77.9594 826.676 77.2782 826.676 76.476C826.676 75.2802 826.358 74.3644 825.722 73.7287C825.102 73.0778 824.337 72.7524 823.429 72.7524C822.521 72.7524 821.757 73.0778 821.136 73.7287C820.531 74.3644 820.228 75.2802 820.228 76.476C820.228 77.6718 820.523 78.5951 821.113 79.246C821.719 79.8817 822.476 80.1996 823.384 80.1996ZM838.044 72.7978H835.842V82.7653H832.618V72.7978H831.187V70.1867H832.618V69.551C832.618 68.007 833.057 66.8718 833.935 66.1452C834.813 65.4187 836.137 65.0781 837.908 65.1235V67.8027C837.136 67.7875 836.599 67.9162 836.296 68.1887C835.993 68.4611 835.842 68.9531 835.842 69.6645V70.1867H838.044V72.7978ZM848.648 66.9172V76.7257C848.648 77.8004 848.928 78.6254 849.488 79.2006C850.048 79.7606 850.835 80.0407 851.849 80.0407C852.878 80.0407 853.673 79.7606 854.233 79.2006C854.793 78.6254 855.073 77.8004 855.073 76.7257V66.9172H858.275V76.703C858.275 78.0502 857.979 79.193 857.389 80.1315C856.814 81.0548 856.034 81.7511 855.051 82.2203C854.082 82.6896 853 82.9242 851.804 82.9242C850.623 82.9242 849.548 82.6896 848.58 82.2203C847.626 81.7511 846.869 81.0548 846.309 80.1315C845.749 79.193 845.469 78.0502 845.469 76.703V66.9172H848.648ZM868.316 70.0051C869.815 70.0051 871.026 70.4819 871.949 71.4355C872.872 72.3739 873.334 73.6908 873.334 75.3861V82.7653H870.155V75.8175C870.155 74.8185 869.906 74.0541 869.406 73.5243C868.907 72.9794 868.225 72.707 867.363 72.707C866.485 72.707 865.788 72.9794 865.274 73.5243C864.774 74.0541 864.525 74.8185 864.525 75.8175V82.7653H861.346V70.1867H864.525V71.7533C864.948 71.2084 865.486 70.7846 866.137 70.4819C866.803 70.164 867.529 70.0051 868.316 70.0051ZM877.969 68.6882C877.409 68.6882 876.94 68.5141 876.561 68.166C876.198 67.8027 876.016 67.3561 876.016 66.8264C876.016 66.2966 876.198 65.8576 876.561 65.5095C876.94 65.1462 877.409 64.9646 877.969 64.9646C878.529 64.9646 878.991 65.1462 879.354 65.5095C879.732 65.8576 879.922 66.2966 879.922 66.8264C879.922 67.3561 879.732 67.8027 879.354 68.166C878.991 68.5141 878.529 68.6882 877.969 68.6882ZM879.536 70.1867V82.7653H876.357V70.1867H879.536ZM887.921 79.8363L891.1 70.1867H894.483L889.828 82.7653H885.968L881.337 70.1867H884.742L887.921 79.8363ZM907.961 76.2035C907.961 76.6576 907.931 77.0663 907.87 77.4296H898.675C898.75 78.3378 899.068 79.0492 899.628 79.5639C900.188 80.0785 900.877 80.3358 901.695 80.3358C902.875 80.3358 903.715 79.8287 904.215 78.8146H907.643C907.28 80.0255 906.584 81.0245 905.554 81.8116C904.525 82.5836 903.261 82.9696 901.763 82.9696C900.552 82.9696 899.462 82.7047 898.493 82.1749C897.54 81.63 896.79 80.8656 896.245 79.8817C895.716 78.8978 895.451 77.7626 895.451 76.476C895.451 75.1742 895.716 74.0314 896.245 73.0475C896.775 72.0636 897.517 71.3068 898.47 70.777C899.424 70.2472 900.521 69.9824 901.763 69.9824C902.958 69.9824 904.026 70.2397 904.964 70.7543C905.918 71.269 906.652 72.0031 907.166 72.9567C907.696 73.8952 907.961 74.9775 907.961 76.2035ZM904.669 75.2953C904.654 74.4779 904.359 73.8271 903.783 73.3427C903.208 72.8432 902.504 72.5934 901.672 72.5934C900.885 72.5934 900.219 72.8356 899.674 73.32C899.144 73.7892 898.819 74.4477 898.697 75.2953H904.669ZM913.46 72.1393C913.869 71.4733 914.398 70.9511 915.049 70.5727C915.715 70.1943 916.472 70.0051 917.32 70.0051V73.3427H916.48C915.481 73.3427 914.724 73.5773 914.209 74.0465C913.71 74.5158 913.46 75.3332 913.46 76.4987V82.7653H910.281V70.1867H913.46V72.1393ZM924.274 82.9696C923.245 82.9696 922.322 82.788 921.504 82.4247C920.687 82.0463 920.036 81.5392 919.552 80.9035C919.082 80.2677 918.825 79.5639 918.78 78.7919H921.981C922.042 79.2763 922.276 79.6774 922.685 79.9953C923.109 80.3131 923.631 80.4721 924.252 80.4721C924.857 80.4721 925.326 80.351 925.659 80.1088C926.007 79.8666 926.182 79.5563 926.182 79.1779C926.182 78.7692 925.97 78.4664 925.546 78.2697C925.137 78.0578 924.479 77.8307 923.57 77.5885C922.632 77.3615 921.86 77.1269 921.255 76.8847C920.664 76.6425 920.15 76.2716 919.711 75.7721C919.287 75.2726 919.075 74.599 919.075 73.7514C919.075 73.0551 919.272 72.4194 919.665 71.8442C920.074 71.269 920.649 70.8149 921.391 70.4819C922.148 70.1489 923.033 69.9824 924.047 69.9824C925.546 69.9824 926.742 70.3608 927.635 71.1176C928.528 71.8593 929.02 72.8659 929.11 74.1374H926.068C926.023 73.6379 925.811 73.2443 925.432 72.9567C925.069 72.654 924.577 72.5026 923.956 72.5026C923.381 72.5026 922.935 72.6086 922.617 72.8205C922.314 73.0324 922.163 73.3276 922.163 73.706C922.163 74.1298 922.375 74.4552 922.799 74.6823C923.222 74.8942 923.881 75.1137 924.774 75.3407C925.682 75.5678 926.431 75.8024 927.022 76.0446C927.612 76.2868 928.119 76.6652 928.543 77.1798C928.982 77.6793 929.209 78.3454 929.224 79.1779C929.224 79.9044 929.02 80.5553 928.611 81.1305C928.217 81.7057 927.642 82.1598 926.885 82.4928C926.144 82.8107 925.273 82.9696 924.274 82.9696ZM933.445 68.6882C932.885 68.6882 932.416 68.5141 932.038 68.166C931.674 67.8027 931.493 67.3561 931.493 66.8264C931.493 66.2966 931.674 65.8576 932.038 65.5095C932.416 65.1462 932.885 64.9646 933.445 64.9646C934.005 64.9646 934.467 65.1462 934.83 65.5095C935.209 65.8576 935.398 66.2966 935.398 66.8264C935.398 67.3561 935.209 67.8027 934.83 68.166C934.467 68.5141 934.005 68.6882 933.445 68.6882ZM935.012 70.1867V82.7653H931.833V70.1867H935.012ZM941.853 72.7978V78.8827C941.853 79.3065 941.952 79.6168 942.149 79.8136C942.361 79.9953 942.709 80.0861 943.193 80.0861H944.669V82.7653H942.671C939.992 82.7653 938.652 81.4635 938.652 78.86V72.7978H937.154V70.1867H938.652V67.0761H941.853V70.1867H944.669V72.7978H941.853ZM958.989 70.1867L951.201 88.714H947.818L950.543 82.4474L945.502 70.1867H949.067L952.314 78.9735L955.606 70.1867H958.989ZM971.584 82.9242C970.479 82.9242 969.48 82.735 968.587 82.3566C967.709 81.9782 967.013 81.4332 966.498 80.7218C965.984 80.0104 965.719 79.1703 965.704 78.2016H969.11C969.155 78.8524 969.382 79.3671 969.791 79.7455C970.215 80.1239 970.79 80.3131 971.516 80.3131C972.258 80.3131 972.841 80.139 973.265 79.7909C973.688 79.4276 973.9 78.9584 973.9 78.3832C973.9 77.914 973.756 77.528 973.469 77.2252C973.181 76.9225 972.818 76.6879 972.379 76.5214C971.955 76.3398 971.365 76.143 970.608 75.9311C969.579 75.6283 968.739 75.3332 968.088 75.0456C967.452 74.7428 966.9 74.2963 966.43 73.706C965.976 73.1005 965.749 72.2983 965.749 71.2992C965.749 70.3608 965.984 69.5434 966.453 68.8471C966.922 68.1508 967.581 67.621 968.428 67.2578C969.276 66.8793 970.245 66.6901 971.335 66.6901C972.969 66.6901 974.294 67.0913 975.308 67.8935C976.337 68.6806 976.905 69.7856 977.011 71.2084H973.514C973.484 70.6635 973.249 70.217 972.81 69.8688C972.387 69.5056 971.819 69.3239 971.108 69.3239C970.487 69.3239 969.987 69.4828 969.609 69.8007C969.246 70.1186 969.064 70.5803 969.064 71.1857C969.064 71.6095 969.2 71.9653 969.473 72.2529C969.76 72.5253 970.109 72.7524 970.517 72.934C970.941 73.1005 971.531 73.2973 972.288 73.5243C973.318 73.8271 974.158 74.1298 974.808 74.4325C975.459 74.7353 976.019 75.1894 976.489 75.7948C976.958 76.4003 977.193 77.195 977.193 78.1789C977.193 79.0265 976.973 79.8136 976.534 80.5402C976.095 81.2667 975.452 81.8495 974.604 82.2885C973.756 82.7123 972.75 82.9242 971.584 82.9242ZM983.649 72.7978V78.8827C983.649 79.3065 983.748 79.6168 983.944 79.8136C984.156 79.9953 984.504 80.0861 984.989 80.0861H986.465V82.7653H984.467C981.787 82.7653 980.448 81.4635 980.448 78.86V72.7978H978.949V70.1867H980.448V67.0761H983.649V70.1867H986.465V72.7978H983.649ZM987.934 76.4306C987.934 75.1591 988.183 74.0314 988.683 73.0475C989.197 72.0636 989.886 71.3068 990.749 70.777C991.627 70.2472 992.603 69.9824 993.678 69.9824C994.616 69.9824 995.434 70.1716 996.13 70.55C996.841 70.9284 997.409 71.4052 997.833 71.9804V70.1867H1001.03V82.7653H997.833V80.9262C997.424 81.5165 996.857 82.0084 996.13 82.402C995.419 82.7804 994.594 82.9696 993.655 82.9696C992.596 82.9696 991.627 82.6971 990.749 82.1522C989.886 81.6073 989.197 80.8429 988.683 79.859C988.183 78.86 987.934 77.7172 987.934 76.4306ZM997.833 76.476C997.833 75.704 997.682 75.0456 997.379 74.5006C997.076 73.9406 996.667 73.5168 996.153 73.2292C995.638 72.9264 995.086 72.7751 994.495 72.7751C993.905 72.7751 993.36 72.9189 992.861 73.2065C992.361 73.4941 991.952 73.9179 991.634 74.4779C991.332 75.0229 991.18 75.6737 991.18 76.4306C991.18 77.1874 991.332 77.8534 991.634 78.4286C991.952 78.9887 992.361 79.4201 992.861 79.7228C993.375 80.0255 993.92 80.1769 994.495 80.1769C995.086 80.1769 995.638 80.0331 996.153 79.7455C996.667 79.4428 997.076 79.0189 997.379 78.474C997.682 77.914 997.833 77.2479 997.833 76.476ZM1009.91 72.7978H1007.7V82.7653H1004.48V72.7978H1003.05V70.1867H1004.48V69.551C1004.48 68.007 1004.92 66.8718 1005.8 66.1452C1006.67 65.4187 1008 65.0781 1009.77 65.1235V67.8027C1009 67.7875 1008.46 67.9162 1008.16 68.1887C1007.85 68.4611 1007.7 68.9531 1007.7 69.6645V70.1867H1009.91V72.7978ZM1017.73 72.7978H1015.53V82.7653H1012.31V72.7978H1010.88V70.1867H1012.31V69.551C1012.31 68.007 1012.75 66.8718 1013.62 66.1452C1014.5 65.4187 1015.83 65.0781 1017.6 65.1235V67.8027C1016.82 67.7875 1016.29 67.9162 1015.98 68.1887C1015.68 68.4611 1015.53 68.9531 1015.53 69.6645V70.1867H1017.73V72.7978ZM1021.2 82.9242C1020.63 82.9242 1020.15 82.7501 1019.77 82.402C1019.41 82.0387 1019.23 81.5922 1019.23 81.0624C1019.23 80.5326 1019.41 80.0936 1019.77 79.7455C1020.15 79.3822 1020.63 79.2006 1021.2 79.2006C1021.76 79.2006 1022.22 79.3822 1022.59 79.7455C1022.95 80.0936 1023.13 80.5326 1023.13 81.0624C1023.13 81.5922 1022.95 82.0387 1022.59 82.402C1022.22 82.7501 1021.76 82.9242 1021.2 82.9242Z" fill="white"/>
</svg>
