<svg width="60" height="60" viewBox="0 0 60 60" fill="none" xmlns="http://www.w3.org/2000/svg">
<rect width="60" height="60" rx="30" fill="#25D366"/>
<path fill-rule="evenodd" clip-rule="evenodd" d="M30.2726 15C22.1385 15 15.5447 21.5426 15.5447 29.6139C15.5447 32.3747 16.3169 34.9568 17.658 37.1595L15 45L23.154 42.4093C25.2638 43.5672 27.6903 44.2271 30.2726 44.2271C38.4062 44.2271 45 37.6847 45 29.6141C45.0001 21.5426 38.4063 15 30.2726 15ZM30.2726 41.8997C27.7574 41.8997 25.4155 41.1511 23.4602 39.8678L18.7019 41.3799L20.2484 36.817C18.7661 34.7915 17.8903 32.3026 17.8903 29.6136C17.8903 22.8388 23.445 17.3272 30.2726 17.3272C37.0999 17.3272 42.6546 22.8388 42.6546 29.6136C42.6546 36.3881 37.1 41.8997 30.2726 41.8997ZM26.8184 23.5691C26.5798 22.9985 26.397 22.9792 26.0285 22.9618C25.9021 22.9558 25.7651 22.9501 25.6151 22.9501C25.1404 22.9501 24.6481 23.0888 24.3514 23.3899C23.9904 23.7564 23.0878 24.6147 23.0878 26.3771C23.0878 28.1398 24.3815 29.843 24.5617 30.082C24.7425 30.3209 27.0848 33.9908 30.7292 35.4891C33.5737 36.6583 34.4183 36.5541 35.0673 36.4133C36.0115 36.2087 37.1973 35.5187 37.4981 34.6825C37.799 33.8459 37.799 33.1288 37.7088 32.9799C37.6185 32.8303 37.3778 32.741 37.0168 32.5614C36.6558 32.3823 34.8806 31.5157 34.5497 31.3965C34.2187 31.277 33.9128 31.3135 33.6583 31.6627C33.307 32.1452 32.9691 32.641 32.6894 32.9349C32.4698 33.1656 32.1164 33.1978 31.8125 33.0696C31.4129 32.9007 30.2881 32.5118 28.909 31.2918C27.836 30.3425 27.1113 29.1699 26.9007 28.8111C26.69 28.4529 26.8821 28.2391 27.0444 28.0441C27.2295 27.8216 27.4003 27.6619 27.5808 27.453C27.7613 27.2437 27.8622 27.1322 27.9825 26.8929C28.1028 26.6541 28.0219 26.4076 27.9316 26.2282C27.8411 26.0488 27.1183 24.2867 26.8184 23.5691Z" fill="white"/>
</svg>
